<svg id="Layer_1" data-name="Layer 1" xmlns="http://www.w3.org/2000/svg" xmlns:xlink="http://www.w3.org/1999/xlink" viewBox="0 0 797.34 207.58"><defs><style>.cls-1{fill:url(#linear-gradient);}.cls-2{fill:url(#linear-gradient-2);}.cls-3{fill:url(#linear-gradient-3);}.cls-4{mask:url(#mask);}.cls-5{fill:#b09d80;}.cls-5,.cls-7{fill-rule:evenodd;}.cls-6{mask:url(#mask-2);}.cls-7{fill:#5c5041;}.cls-8{mask:url(#mask-3);}</style><linearGradient id="linear-gradient" x1="396.44" y1="97.63" x2="396.44" y2="200.87" gradientUnits="userSpaceOnUse"><stop offset="0" stop-color="#fff"/><stop offset="0.12" stop-color="#d1d1d1"/><stop offset="0.3" stop-color="#929292"/><stop offset="0.48" stop-color="#5e5e5e"/><stop offset="0.64" stop-color="#353535"/><stop offset="0.78" stop-color="#181818"/><stop offset="0.91" stop-color="#060606"/><stop offset="1"/></linearGradient><linearGradient id="linear-gradient-2" x1="692.22" y1="149.62" x2="692.22" y2="205.87" xlink:href="#linear-gradient"/><linearGradient id="linear-gradient-3" x1="103.22" y1="149.62" x2="103.22" y2="205.87" xlink:href="#linear-gradient"/><mask id="mask" x="166.84" y="-43.8" width="459.19" height="252.18" maskUnits="userSpaceOnUse"><rect class="cls-1" x="166.84" y="-43.8" width="459.19" height="252.18"/></mask><mask id="mask-2" x="567.12" y="72.55" width="250.21" height="137.41" maskUnits="userSpaceOnUse"><rect class="cls-2" x="567.12" y="72.55" width="250.21" height="137.41"/></mask><mask id="mask-3" x="-21.88" y="72.55" width="250.21" height="137.41" maskUnits="userSpaceOnUse"><rect class="cls-3" x="-21.88" y="72.55" width="250.21" height="137.41"/></mask></defs><g class="cls-4"><path class="cls-5" d="M399,53.42a3.22,3.22,0,0,1,1,1.11,3.61,3.61,0,0,1,.45,1.75,3.71,3.71,0,0,1-.38,1.65,3.22,3.22,0,0,1-.8,1l.14,3.07a38.4,38.4,0,0,1,4.38,3.16,13.61,13.61,0,0,1,3.85,5h0a12.56,12.56,0,0,1,.78,5,15.26,15.26,0,0,1-.55,3.33A125.08,125.08,0,0,1,425.21,91.6c4.91,4.51,9.36,9.55,12.19,14.9l0-6.88H437a1,1,0,0,1-1-1.1h0a1,1,0,0,1,.71-1v-5h-.39a.55.55,0,0,1-.51-.57h0a.55.55,0,0,1,.51-.57h.47a6.52,6.52,0,0,1,.12-4.33,6.06,6.06,0,0,1,1.69-2.33A16.24,16.24,0,0,1,440.78,83a1.21,1.21,0,0,1,0-.42,1.66,1.66,0,0,1,.08-.61h0a2.54,2.54,0,0,1,.47-.62c.2-.17.39-.3.55-.44l0-.35s-.08-.06-.08-.13-.08-.13-.08-.22,0-.13.08-.22,0-.09.12-.13l0-.33c-.08,0-.12-.06-.12-.11s0-.09,0-.17,0-.11,0-.13,0-.13.12-.16v-.37l.12-2.67,0,0s0,0,0,0l.15,2.67V79a.68.68,0,0,1,.08.16h0s0,0,0,.13,0,.13,0,.17h0a.12.12,0,0,1-.08.11v.33a.56.56,0,0,1,.16.13c0,.09,0,.14,0,.22s0,.14,0,.22a.81.81,0,0,1-.11.13l0,.35a5.18,5.18,0,0,1,.51.44,1.39,1.39,0,0,1,.51.62h0a1.66,1.66,0,0,1,.08.61,1.21,1.21,0,0,1,0,.42,19.34,19.34,0,0,1,2.17,1.64A6.17,6.17,0,0,1,447.31,87a6.58,6.58,0,0,1,.12,4.33H448a.56.56,0,0,1,.51.57h0a.55.55,0,0,1-.51.57h-.4v5a1,1,0,0,1,.71,1h0a1,1,0,0,1-.94,1.1h-.44l0,16.79h.39a1.18,1.18,0,0,1,1.1,1.27h0a1.12,1.12,0,0,1-1.1,1.18H447l.08,20.69h1.07a1.32,1.32,0,0,1,1.25,1.41h0a1.35,1.35,0,0,1-1.25,1.4h-1l0,7.28c.12-.57.32-1.1.47-1.58a13.74,13.74,0,0,1,3.46-4.6,33.73,33.73,0,0,1,4.37-3.29,2.59,2.59,0,0,1-.12-.83,2.46,2.46,0,0,1,.2-1.28h0a3.21,3.21,0,0,1,1-1.27c.39-.3.79-.61,1.06-.79l.08-.74a.83.83,0,0,1-.24-.31,1.13,1.13,0,0,1-.07-.39.9.9,0,0,1,.11-.44.37.37,0,0,1,.24-.26l0-.66c-.08-.09-.16-.13-.16-.22a.81.81,0,0,1,0-.7.82.82,0,0,1,.2-.22v-.7L458,126c0-.09,0-.13.11-.13s.12,0,.12.13l.2,5.35,0,.7c.08,0,.13.17.16.22h0a.62.62,0,0,1,.12.35,1.11,1.11,0,0,1-.08.35h0a.72.72,0,0,1-.15.22l0,.66a.68.68,0,0,1,.24.26.91.91,0,0,1,.12.44.65.65,0,0,1-.12.39.86.86,0,0,1-.19.31l0,.74a10.75,10.75,0,0,1,1.1.79,3.66,3.66,0,0,1,1,1.27h0a3.69,3.69,0,0,1,.19,1.28,2.86,2.86,0,0,1-.15.83,10,10,0,0,1,.94.61l.08-18.5h-1.89a2.49,2.49,0,0,1-2.32-2.58h0a2.49,2.49,0,0,1,2.32-2.59h2.16V102.25h-.71a.93.93,0,0,1-.86-1h0a1,1,0,0,1,.86-1h.87a11.89,11.89,0,0,1,.16-7.85,11.72,11.72,0,0,1,3.06-4.08,28.94,28.94,0,0,1,3.9-2.93,3.5,3.5,0,0,1-.08-.75,2.34,2.34,0,0,1,.16-1.14h0a3.15,3.15,0,0,1,.86-1.12c.35-.28.71-.54,1-.72l0-.66c-.09-.09-.17-.17-.17-.26a.58.58,0,0,1-.11-.35.68.68,0,0,1,.11-.4c0-.13.13-.17.2-.26v-.59a1.36,1.36,0,0,1-.12-.18.66.66,0,0,1-.08-.28.88.88,0,0,1,.08-.31.89.89,0,0,1,.16-.22l0-.63.2-4.78c0-.07,0-.11.12-.11s.07,0,.07.11l.2,4.78,0,.63c.08,0,.12.14.16.22h0a.71.71,0,0,1,.08.31.55.55,0,0,1-.08.28h0c0,.07-.08.16-.12.18l0,.59c0,.09.12.13.2.26a.69.69,0,0,1,.07.4,1.23,1.23,0,0,1,0,.35l-.24.26,0,.66c.28.18.67.44,1,.72a3.73,3.73,0,0,1,.87,1.12h0a2.45,2.45,0,0,1,.15,1.14,2.73,2.73,0,0,1-.12.75,27.73,27.73,0,0,1,3.9,2.93,11.75,11.75,0,0,1,3.07,4.08,11.88,11.88,0,0,1,.15,7.85h1a1,1,0,0,1,.86,1h0a.93.93,0,0,1-.86,1h-.75v14.86h2.2A2.47,2.47,0,0,1,486,119.7h0a2.46,2.46,0,0,1-2.32,2.58h-1.89l0,7.81a57.41,57.41,0,0,1,6.33-4.65,7.43,7.43,0,0,1-.23-1.49,5.39,5.39,0,0,1,.35-2.28h0a6.83,6.83,0,0,1,1.77-2.28,24,24,0,0,1,2-1.45l0-1.4a1.59,1.59,0,0,1-.52-1.23,1.62,1.62,0,0,1,.2-.79,1.44,1.44,0,0,1,.47-.48v-1.23a1.59,1.59,0,0,1-.27-.39,1.29,1.29,0,0,1-.12-.57,1.49,1.49,0,0,1,.15-.7,1.1,1.1,0,0,1,.36-.35l0-1.27.36-9.74c0-.08.15-.21.23-.21a.26.26,0,0,1,.2.21l.39,9.74,0,1.27a1.17,1.17,0,0,1,.35.35h0a2,2,0,0,1,.16.7,1.31,1.31,0,0,1-.16.57h0a.86.86,0,0,1-.27.39l0,1.23a1.44,1.44,0,0,1,.47.48,1.62,1.62,0,0,1,.2.79,2.23,2.23,0,0,1-.16.75,1.6,1.6,0,0,1-.39.48l.07,1.4a22.47,22.47,0,0,1,2,1.45,6.24,6.24,0,0,1,1.77,2.28h0a6.78,6.78,0,0,1,.35,2.28,6.54,6.54,0,0,1-.27,1.49,61.13,61.13,0,0,1,7.94,6c.51.49,1.06,1,1.53,1.54l.08-8.77h-.23a.68.68,0,0,1-.63-.7h0a.66.66,0,0,1,.63-.7h.23l0-9.91h-.27a.53.53,0,0,1-.55-.57h0a.71.71,0,0,1,.43-.66v-2.93h-.24a.29.29,0,0,1-.27-.31h0a.29.29,0,0,1,.27-.31H507a4.05,4.05,0,0,1,0-2.58,3.87,3.87,0,0,1,1-1.36,15.49,15.49,0,0,1,1.26-1,1,1,0,0,0,0-.26,1.42,1.42,0,0,1,.08-.35h0a1,1,0,0,1,.27-.35c.12-.09.24-.22.32-.27v-.17s0,0,0-.13v-.22s0,0,.08-.09v-.17s0,0,0-.09,0,0,0-.09,0,0,0-.09a.14.14,0,0,1,0-.08l0-.22,0-1.54s0,0,0,0,0,0,0,0l.08,1.54v.22a.14.14,0,0,1,0,.08h0s0,0,0,.09,0,0,0,.09h0s0,0,0,.09v.17l.08.09a.17.17,0,0,1,0,.13v.09c0,.09-.08.09-.12.13l0,.17c.08,0,.2.18.32.27a1,1,0,0,1,.27.35h0a.63.63,0,0,1,.08.35.59.59,0,0,1,0,.22,12.38,12.38,0,0,1,1.26,1,3.44,3.44,0,0,1,1,1.36,4.05,4.05,0,0,1,0,2.58h.32a.33.33,0,0,1,.31.31h0a.32.32,0,0,1-.31.31h-.2v2.93a.75.75,0,0,1,.39.66h0a.53.53,0,0,1-.55.57h-.27l0,9.91h.23a.66.66,0,0,1,.63.7h0a.68.68,0,0,1-.63.7H513l0,12.14h.63a.78.78,0,0,1,.71.8h0a.82.82,0,0,1-.71.83h-.63l.05,5.74c.07.31.11.66.15.92.39-.44.83-.83,1.26-1.23a37.09,37.09,0,0,1,5.07-3.86,3.59,3.59,0,0,1-.11-1,3.63,3.63,0,0,1,.19-1.45h0a4.39,4.39,0,0,1,1.14-1.45c.47-.39,1-.7,1.3-1l0-.88a.44.44,0,0,1-.24-.3,1,1,0,0,1-.12-.49.7.7,0,0,1,.16-.48.54.54,0,0,1,.28-.31l0-.79a1,1,0,0,1-.2-.26,1.12,1.12,0,0,1-.12-.39,1.19,1.19,0,0,1,.16-.44l.2-.22,0-.83.24-6.23a.17.17,0,0,1,.16-.17.33.33,0,0,1,.08.17l.27,6.23,0,.83.2.22h0a1,1,0,0,1,.12.44.65.65,0,0,1-.12.39h0a.43.43,0,0,1-.16.26l0,.79a.71.71,0,0,1,.28.31,1,1,0,0,1,.11.48,1.48,1.48,0,0,1-.08.49.76.76,0,0,1-.23.3l0,.88a15.17,15.17,0,0,1,1.26,1,3.93,3.93,0,0,1,1.14,1.45h0a3.38,3.38,0,0,1,.23,1.45,3.43,3.43,0,0,1-.16,1,34.32,34.32,0,0,1,5.08,3.86,19.66,19.66,0,0,1,2.2,2.28l0-11.18h-1.34a1.77,1.77,0,0,1-1.69-1.84h0a1.83,1.83,0,0,1,1.69-1.93h1.38l.15-27.83h-.51a1.58,1.58,0,0,1-1.45-1.63h0a1.55,1.55,0,0,1,1.45-1.62h.51L533.46,77h-.67a1.4,1.4,0,0,1-1.29-1.47h0a1.39,1.39,0,0,1,1-1.38V67.36H532a.74.74,0,0,1-.67-.75h0a.71.71,0,0,1,.67-.74h.63a9.17,9.17,0,0,1,.12-5.93,8.66,8.66,0,0,1,2.28-3,24,24,0,0,1,2.94-2.24,2.67,2.67,0,0,1-.07-.57,2.94,2.94,0,0,1,.12-.81h0a2.3,2.3,0,0,1,.67-.87,6,6,0,0,1,.74-.53l0-.5a.51.51,0,0,1-.16-.2.61.61,0,0,1-.08-.26.82.82,0,0,1,.08-.29.41.41,0,0,1,.2-.19V50a.83.83,0,0,1-.12-.17.26.26,0,0,1,0-.18.7.7,0,0,1,.08-.26c0-.09.08-.09.08-.17l0-.44.16-3.6s0-.09.07-.09,0,.05,0,.09l.2,3.6v.44c0,.08.08.08.12.17h0a.61.61,0,0,1,0,.26.26.26,0,0,1,0,.18h0c0,.07,0,.13-.12.17l0,.45a.34.34,0,0,1,.16.19.82.82,0,0,1,.08.29c0,.11,0,.19,0,.26a1.72,1.72,0,0,0-.15.2v.5a6.89,6.89,0,0,1,.75.53,2.52,2.52,0,0,1,.67.87h0a2.18,2.18,0,0,1,.15.81c0,.24-.08.42-.12.57a23.26,23.26,0,0,1,3,2.24,8.78,8.78,0,0,1,2.28,3,9.17,9.17,0,0,1,.12,5.93h.75a.71.71,0,0,1,.67.74h0a.74.74,0,0,1-.67.75h-.55v1.79c0,.09,0,.22,0,.35l0,.13v4.52a1.37,1.37,0,0,1,1,1.38h0a1.37,1.37,0,0,1-1.3,1.47h-.63l.12,22.66h.51a1.55,1.55,0,0,1,1.46,1.62h0a1.58,1.58,0,0,1-1.46,1.63h-.51l.16,27.83h1.42a1.86,1.86,0,0,1,1.69,1.93h0a1.8,1.8,0,0,1-1.69,1.84h-1.38l.08,19.51h3.66l.07-23.8h-.94a1.19,1.19,0,0,1-1.14-1.27h0a1.21,1.21,0,0,1,1.14-1.28h.94l.16-19.15h-.39a1.11,1.11,0,0,1-1-1.14h0a1.07,1.07,0,0,1,1-1.1h.39l0-15.61h-.4a.91.91,0,0,1-.9-1h0a.93.93,0,0,1,.67-1V84.06h-.35a.47.47,0,0,1-.47-.49h0a.49.49,0,0,1,.47-.54h.43A6.18,6.18,0,0,1,550,79a5.37,5.37,0,0,1,1.57-2.08,17.13,17.13,0,0,1,2-1.54.81.81,0,0,1-.08-.39,1,1,0,0,1,.08-.59h0a1.3,1.3,0,0,1,.47-.55,3.56,3.56,0,0,1,.47-.39l0-.34a.15.15,0,0,1-.08-.12.41.41,0,0,1,0-.2.31.31,0,0,1,0-.2s0-.11.12-.13v-.31s-.08,0-.08-.08,0-.11,0-.16a.48.48,0,0,1,0-.15c0-.09.08-.09.08-.09l0-.35.07-2.48s.05,0,.08,0,0,0,0,0L555,71.3v.33s.08,0,.08.09h0a.7.7,0,0,1,0,.17.3.3,0,0,1,0,.16h0a.07.07,0,0,1,0,.06v.33a.18.18,0,0,1,.08.13c.08,0,.08.13.08.2a.41.41,0,0,1,0,.2.4.4,0,0,0-.08.12v.34a4.36,4.36,0,0,1,.51.39,1.55,1.55,0,0,1,.43.55v0a1.41,1.41,0,0,1,.08.57,1.39,1.39,0,0,1,0,.39,22.16,22.16,0,0,1,2,1.54A5.48,5.48,0,0,1,559.69,79a6.45,6.45,0,0,1,.08,4.06h.47a.53.53,0,0,1,.51.54h0a.5.5,0,0,1-.51.49h-.35v4.69a.93.93,0,0,1,.66,1h0a.87.87,0,0,1-.86,1h-.43l.12,15.61h.31a1,1,0,0,1,1,1.1h0a1.08,1.08,0,0,1-1,1.14h-.31l.08,19.15h.94a1.22,1.22,0,0,1,1.18,1.28h0a1.19,1.19,0,0,1-1.18,1.27h-.91l0,23.8H561v-1h-.12a.51.51,0,0,1-.47-.53h0a.5.5,0,0,1,.47-.48h.24a12.87,12.87,0,0,1-.12-8.81,12.57,12.57,0,0,1,3.15-4.13,27,27,0,0,1,4-3,3.57,3.57,0,0,1-.12-.79,2.07,2.07,0,0,1,.19-1.14h0a2.9,2.9,0,0,1,.87-1.14c.35-.26.75-.52,1-.7l0-.7a1,1,0,0,1-.19-.26.51.51,0,0,1-.08-.35.64.64,0,0,1,.08-.4.69.69,0,0,1,.23-.3l0-.58c-.08,0-.12-.13-.16-.17a1.18,1.18,0,0,1-.08-.31.51.51,0,0,1,.08-.3.83.83,0,0,1,.16-.22l0-.66.2-4.87s0-.08.11-.08a.09.09,0,0,1,.08.08l.2,4.87,0,.66a.83.83,0,0,1,.16.22h0a.6.6,0,0,1,.08.3.76.76,0,0,1-.05.31h0c-.07,0-.07.13-.15.17v.58a.49.49,0,0,1,.23.3.64.64,0,0,1,.08.4,1.23,1.23,0,0,1,0,.35,2.56,2.56,0,0,0-.2.26v.7c.31.18.66.44,1,.7a3.33,3.33,0,0,1,.9,1.14h0a2.34,2.34,0,0,1,.16,1.14,2.15,2.15,0,0,1-.12.79,25,25,0,0,1,4,3,12.05,12.05,0,0,1,3.15,4.13,12.75,12.75,0,0,1-.12,8.81h.24a.47.47,0,0,1,.47.48h0a.49.49,0,0,1-.47.53H580v1h2.24V151.7h-.59a.8.8,0,0,1-.74-.84h0a.76.76,0,0,1,.74-.83h.59l.08-12.1h-.19a.7.7,0,0,1-.67-.74h0a.66.66,0,0,1,.67-.7h.19l0-9.82h-.23a.64.64,0,0,1-.59-.66h0a.6.6,0,0,1,.43-.62v-2.93h-.24c-.16,0-.27-.18-.27-.35h0a.28.28,0,0,1,.27-.31H582a4.06,4.06,0,0,1,0-2.59,3.68,3.68,0,0,1,1-1.31,10.31,10.31,0,0,1,1.26-1s0-.13,0-.18a.63.63,0,0,1,.08-.39h0c0-.17.15-.26.27-.39a2.68,2.68,0,0,1,.32-.22v-.22a.19.19,0,0,1,0-.09.14.14,0,0,1,0-.09.5.5,0,0,1,0-.13.14.14,0,0,0,0-.09l0-.21s0,0,0,0l0-.09s0-.09,0-.13a0,0,0,0,1,0,0v-.22l.07-1.58h.08l0,1.58v.22a.14.14,0,0,1,.08,0h0a.17.17,0,0,1,0,.13.14.14,0,0,1,0,.09h0s0,0,0,0v.21a.1.1,0,0,1,.08.09v.22a.19.19,0,0,1,0,.09v.22a2,2,0,0,1,.31.22.89.89,0,0,1,.28.39h0a1.12,1.12,0,0,1,.08.39c0,.05,0,.14,0,.18a14.62,14.62,0,0,1,1.26,1,3.92,3.92,0,0,1,1,1.31,4.06,4.06,0,0,1,0,2.59h.31a.3.3,0,0,1,.32.31h0a.33.33,0,0,1-.32.35h-.23v.79a.24.24,0,0,0,0,.13l0,0v2a.62.62,0,0,1,.43.62h0a.61.61,0,0,1-.55.66h-.27l.07,9.82h.2a.69.69,0,0,1,.67.7h0a.73.73,0,0,1-.67.74H588l0,12.1h.63a.76.76,0,0,1,.71.83h0a.79.79,0,0,1-.71.84H588l0,52.3H208.8V154h.25l.06-10h-1a1.27,1.27,0,0,1-1.16-1.32h0a1.26,1.26,0,0,1,1.16-1.31h1l.11-19.12h-.33a1.07,1.07,0,0,1-1-1.14h0a1,1,0,0,1,1-1.09h.33l.1-15.56h-.43a1,1,0,0,1-.91-1h0a1,1,0,0,1,.69-1V97.82h-.37a.48.48,0,0,1-.47-.48h0a.47.47,0,0,1,.47-.53h.43a6.33,6.33,0,0,1,.09-4.08,6.15,6.15,0,0,1,1.57-2.1,12.13,12.13,0,0,1,2-1.49,2.41,2.41,0,0,1-.07-.43,1.25,1.25,0,0,1,.11-.58h0a1.05,1.05,0,0,1,.44-.52,1.48,1.48,0,0,1,.52-.4v-.35a.35.35,0,0,1-.1-.17s0-.09,0-.18a1,1,0,0,1,0-.17s.08-.13.14-.13V85.9c0-.05-.06-.09-.08-.09a.55.55,0,0,1,0-.18.35.35,0,0,1,0-.17s.06,0,.08-.09l0-.31.08-2.49s0,0,.07,0,0,0,0,0l.1,2.49,0,.31s.06,0,.07.09h0a.35.35,0,0,1,0,.17,1.09,1.09,0,0,1,0,.18h0s-.07,0-.08.09v.31s.09.08.12.13a.55.55,0,0,1,.05.17c0,.09,0,.18-.05.18a.23.23,0,0,1-.08.17v.35a1.58,1.58,0,0,1,.52.4,1.11,1.11,0,0,1,.44.52h0a1.49,1.49,0,0,1,.09.58,2.55,2.55,0,0,1,0,.43,13,13,0,0,1,2,1.49,6.1,6.1,0,0,1,1.59,2.1,6.37,6.37,0,0,1,.07,4.08h.51c.26,0,.46.18.46.53h0a.47.47,0,0,1-.46.48h-.38v1.23a.77.77,0,0,0,0,.26l0,.09v3.11a1,1,0,0,1,.7,1h0a1,1,0,0,1-.88,1h-.43l.06,15.56h.37a1,1,0,0,1,1,1.09h0a1.09,1.09,0,0,1-1,1.14h-.37l.13,19.12h.93a1.26,1.26,0,0,1,1.17,1.31h0a1.27,1.27,0,0,1-1.17,1.32h-.91l0,10h2.42a24.14,24.14,0,0,1,.75-14.33,24.12,24.12,0,0,1,6.24-8.25,59.7,59.7,0,0,1,7.92-6,6.54,6.54,0,0,1-.27-1.49,5.76,5.76,0,0,1,.37-2.28h0a5.84,5.84,0,0,1,1.77-2.28,22.47,22.47,0,0,1,2-1.45l.06-1.4a1,1,0,0,1-.36-.48,1.56,1.56,0,0,1-.16-.75,1.62,1.62,0,0,1,.17-.79,1.87,1.87,0,0,1,.44-.48l.06-1.23a1.65,1.65,0,0,1-.29-.39,1.29,1.29,0,0,1-.13-.57,1.31,1.31,0,0,1,.18-.7,1.11,1.11,0,0,1,.29-.35l.07-1.27.4-9.74c0-.08.1-.21.21-.21a.24.24,0,0,1,.17.21l.4,9.74.05,1.27a.82.82,0,0,1,.34.35h0a1.51,1.51,0,0,1,.17.7,1.45,1.45,0,0,1-.13.57h0a1.62,1.62,0,0,1-.28.39l0,1.23a1.3,1.3,0,0,1,.45.48,1.74,1.74,0,0,1,.18.79,1.83,1.83,0,0,1-.15.75,1.55,1.55,0,0,1-.36.48l0,1.4a21.11,21.11,0,0,1,2,1.45,6.17,6.17,0,0,1,1.78,2.28h0a5.24,5.24,0,0,1,.35,2.28,6.18,6.18,0,0,1-.24,1.49,61,61,0,0,1,7.91,6,24.87,24.87,0,0,1,5.9,7.5l0-4.43h-1.36a1.77,1.77,0,0,1-1.69-1.84h0a1.83,1.83,0,0,1,1.69-1.93h1.4l.13-27.83h-.48a1.59,1.59,0,0,1-1.48-1.63h0a1.56,1.56,0,0,1,1.48-1.62h.5L259.42,77h-.63a1.4,1.4,0,0,1-1.31-1.47h0a1.39,1.39,0,0,1,1-1.38V67.36H258a.72.72,0,0,1-.68-.75h0a.7.7,0,0,1,.68-.74h.64a9.21,9.21,0,0,1,.1-5.93,9.14,9.14,0,0,1,2.31-3A21.31,21.31,0,0,1,264,54.66a1.18,1.18,0,0,1-.11-.57,2.14,2.14,0,0,1,.13-.81h0a2.37,2.37,0,0,1,.66-.87c.26-.2.54-.38.73-.53l0-.5a.51.51,0,0,1-.12-.2.63.63,0,0,1-.05-.26.84.84,0,0,1,.05-.29c.07-.09.1-.15.18-.19V50a.31.31,0,0,1-.09-.17.32.32,0,0,1-.05-.18.85.85,0,0,1,.05-.26c0-.09.08-.09.1-.17l0-.44.14-3.6a.09.09,0,0,1,.08-.09s.07.05.07.09l.14,3.6,0,.44c.05.08.08.08.13.17h0a1.32,1.32,0,0,1,.05.26.43.43,0,0,1-.05.18h0A.34.34,0,0,1,266,50l0,.45a.64.64,0,0,1,.16.19.54.54,0,0,1,.06.29.65.65,0,0,1,0,.26,1,1,0,0,1-.15.2l0,.5c.2.15.48.33.73.53a2.49,2.49,0,0,1,.66.87h0a1.84,1.84,0,0,1,.15.81,3.13,3.13,0,0,1-.1.57,23.9,23.9,0,0,1,2.93,2.24,9.14,9.14,0,0,1,2.31,3,9.3,9.3,0,0,1,.12,5.93h.73a.68.68,0,0,1,.66.74h0a.7.7,0,0,1-.66.75h-.55v1.79c0,.09,0,.22,0,.35v4.65a1.38,1.38,0,0,1,1,1.38h0A1.4,1.4,0,0,1,272.76,77h-.61l.13,22.66h.48a1.55,1.55,0,0,1,1.47,1.62h0a1.58,1.58,0,0,1-1.47,1.63h-.47l.12,27.83h1.41a1.83,1.83,0,0,1,1.68,1.93h0a1.77,1.77,0,0,1-1.68,1.84h-1.39l.06,9.87a20,20,0,0,1,4.67-5.92,45.34,45.34,0,0,1,6.24-4.69,6.8,6.8,0,0,1-.19-1.23,4.44,4.44,0,0,1,.29-1.84h0a5.52,5.52,0,0,1,1.4-1.75,10.81,10.81,0,0,1,1.58-1.14l0-1.1a.92.92,0,0,1-.31-.4,1.64,1.64,0,0,1-.12-.56,1.3,1.3,0,0,1,.16-.62,1.62,1.62,0,0,1,.35-.44l0-.92-.24-.3a1.47,1.47,0,0,1-.11-.49,1.26,1.26,0,0,1,.14-.52,3.56,3.56,0,0,1,.26-.31l.05-1,.29-7.67a.18.18,0,0,1,.18-.17.16.16,0,0,1,.16.17l.3,7.67.05,1a3.4,3.4,0,0,1,.25.31h0a1.25,1.25,0,0,1,.13.52,1.1,1.1,0,0,1-.11.49h0a2.13,2.13,0,0,0-.22.3l0,.92a1.83,1.83,0,0,1,.35.44,1.42,1.42,0,0,1,.15.62,1.05,1.05,0,0,1-.13.56.75.75,0,0,1-.28.4l0,1.1a9.53,9.53,0,0,1,1.61,1.14,5.22,5.22,0,0,1,1.39,1.75v0a4.43,4.43,0,0,1,.29,1.8,6.8,6.8,0,0,1-.19,1.23,43.33,43.33,0,0,1,5.84,4.34l.08-15.83h-.35a1.08,1.08,0,0,1-1-1.14h0a1,1,0,0,1,1-1.09H297l.08-15.56h-.44a1,1,0,0,1-.88-1h0a1,1,0,0,1,.68-1V97.82H296a.48.48,0,0,1-.46-.48h0a.47.47,0,0,1,.46-.53h.45a6.1,6.1,0,0,1,.06-4.08,6,6,0,0,1,1.6-2.1,12.46,12.46,0,0,1,2-1.49,1.78,1.78,0,0,1-.06-.43,1.42,1.42,0,0,1,.07-.58h0a1.26,1.26,0,0,1,.48-.52,1.44,1.44,0,0,1,.5-.4v-.35a.34.34,0,0,1-.08-.17s-.05-.09-.05-.18a.28.28,0,0,1,.05-.17s.08-.13.13-.13V85.9c0-.05-.06-.09-.08-.09s0-.09,0-.18a1.2,1.2,0,0,1,0-.17s.07,0,.08-.09v-.31l.12-2.49s0,0,.06,0,0,0,0,0l.12,2.49v.31s.08,0,.1.09h0c0,.09,0,.13,0,.17a1.13,1.13,0,0,1,0,.18h0s-.05,0-.09.09l0,.31s.07.08.11.13a.37.37,0,0,1,.05.17c0,.09,0,.18-.05.18a.73.73,0,0,1-.07.17v.35a1.77,1.77,0,0,1,.5.4,1.38,1.38,0,0,1,.47.52h0a1.42,1.42,0,0,1,.07.58,1.4,1.4,0,0,1-.06.43,12.51,12.51,0,0,1,2,1.49,6.1,6.1,0,0,1,1.59,2.1,6.17,6.17,0,0,1,.07,4.08h.53c.23,0,.44.18.44.53h0a.47.47,0,0,1-.44.48h-.38v4.69a1,1,0,0,1,.69,1h0a1,1,0,0,1-.9,1h-.43l.08,15.56h.35a1,1,0,0,1,1,1.09h0a1.09,1.09,0,0,1-1,1.14h-.32L306,133c.49-.53,1.05-1,1.59-1.54a59,59,0,0,1,7.91-6,5.68,5.68,0,0,1-.25-1.49,5.42,5.42,0,0,1,.37-2.28h0a5.91,5.91,0,0,1,1.76-2.28,24,24,0,0,1,2-1.45l.06-1.4a1.21,1.21,0,0,1-.37-.48,1.83,1.83,0,0,1-.16-.75,1.52,1.52,0,0,1,.2-.79,1.15,1.15,0,0,1,.45-.48l0-1.23a1.59,1.59,0,0,1-.27-.39,1.45,1.45,0,0,1-.13-.57,1.63,1.63,0,0,1,.16-.7.84.84,0,0,1,.35-.35l.05-1.27.39-9.74c0-.08.09-.21.19-.21s.2.13.2.21l.4,9.74.05,1.27a1.07,1.07,0,0,1,.32.35h0a1.5,1.5,0,0,1,.16.7,1.29,1.29,0,0,1-.13.57h0a1.36,1.36,0,0,1-.27.39l.05,1.23a1.49,1.49,0,0,1,.62,1.27,1.83,1.83,0,0,1-.15.75,1.44,1.44,0,0,1-.38.48l.06,1.4a18.79,18.79,0,0,1,2,1.45,5.9,5.9,0,0,1,1.79,2.28h0a5.37,5.37,0,0,1,.34,2.28,5.72,5.72,0,0,1-.24,1.49,61,61,0,0,1,7.92,6,27.16,27.16,0,0,1,5.29,6.32l.13-24.11h-1.9a2.48,2.48,0,0,1-2.31-2.59h0a2.48,2.48,0,0,1,2.31-2.59h2.16v-7.89H338a.94.94,0,0,1-.86-1h0a.93.93,0,0,1,.86-1h.86a12.53,12.53,0,0,1,.14-7.89,11.81,11.81,0,0,1,3.09-4,25.34,25.34,0,0,1,3.9-3,2.68,2.68,0,0,1-.13-.75,3.22,3.22,0,0,1,.17-1.14h0a3.11,3.11,0,0,1,.87-1.09c.37-.29.72-.53,1-.71l0-.7a.41.41,0,0,1-.17-.26.9.9,0,0,1-.1-.35,1.06,1.06,0,0,1,.1-.38.74.74,0,0,1,.21-.28l0-.57a.45.45,0,0,1-.14-.2.64.64,0,0,1-.06-.28.78.78,0,0,1,.07-.33,1,1,0,0,1,.16-.2l0-.61.18-4.78a.13.13,0,0,1,.11-.11.12.12,0,0,1,.1.11l.19,4.78,0,.61a1,1,0,0,1,.16.2h0a.68.68,0,0,1,.09.33.64.64,0,0,1-.07.28h0a.37.37,0,0,1-.13.2v.57a.65.65,0,0,1,.21.28.69.69,0,0,1,.12.38.66.66,0,0,1-.11.35.51.51,0,0,1-.16.26l0,.7a11.52,11.52,0,0,1,1,.71,3,3,0,0,1,.88,1.09v0a2.56,2.56,0,0,1,.16,1.12,3.32,3.32,0,0,1-.1.75,26.26,26.26,0,0,1,3.88,3,11.38,11.38,0,0,1,3.07,4,12.21,12.21,0,0,1,.16,7.89h1a.93.93,0,0,1,.9,1h0a.94.94,0,0,1-.9,1h-.72V103c0,.18,0,.31,0,.48l0,.22v1.4a33.1,33.1,0,0,1,2.41-3.63l.05-9.21h-.95a1.25,1.25,0,0,1-1.18-1.32h0a1.24,1.24,0,0,1,1.18-1.27h1l.08-19.28h-.33a1.07,1.07,0,0,1-1-1.15h0a1,1,0,0,1,1-1.09h.36l.07-15.69h-.43a1,1,0,0,1-.89-1h0a1,1,0,0,1,.67-1v-4.7h-.36a.49.49,0,0,1-.47-.52h0a.49.49,0,0,1,.47-.51h.43a6.33,6.33,0,0,1,.1-4.1,5.64,5.64,0,0,1,1.58-2.1A13.11,13.11,0,0,1,363.91,37a1.67,1.67,0,0,1-.09-.4,1.46,1.46,0,0,1,.1-.57h0a1.22,1.22,0,0,1,.45-.59,2.53,2.53,0,0,1,.52-.37V34.7a1.1,1.1,0,0,1-.09-.14.32.32,0,0,1-.05-.19,1.46,1.46,0,0,1,.05-.2l.11-.15,0-.29c-.05,0-.06-.09-.08-.13s0-.07,0-.13a.65.65,0,0,1,0-.18l.1-.09v-.33l.09-2.47a.06.06,0,0,1,.06-.06.06.06,0,0,1,.05.06l.1,2.47v.33a.23.23,0,0,0,.11.09h0a1.35,1.35,0,0,1,0,.18.56.56,0,0,1,0,.13h0l-.08.13V34a.49.49,0,0,1,.1.15.51.51,0,0,1,.06.2c0,.06,0,.1,0,.19a.41.41,0,0,1-.1.14l0,.35a2.76,2.76,0,0,1,.5.37,1,1,0,0,1,.45.59h0a1.31,1.31,0,0,1,.11.57c0,.13,0,.29-.07.4a14.07,14.07,0,0,1,2,1.53,5.74,5.74,0,0,1,1.58,2.1,6.4,6.4,0,0,1,.1,4.1h.5a.49.49,0,0,1,.47.51h0a.49.49,0,0,1-.47.52h-.37V47a1.28,1.28,0,0,0,0,.22v3.25a1,1,0,0,1,.69,1h0a1,1,0,0,1-.9,1h-.43l.07,15.69H370a1,1,0,0,1,1,1.09h0a1.07,1.07,0,0,1-1,1.15h-.33l.09,19.28h1a1.22,1.22,0,0,1,.67.22,135.17,135.17,0,0,1,15.37-11.33,16,16,0,0,1-.53-3.33,11.88,11.88,0,0,1,.81-5h0a13.64,13.64,0,0,1,3.86-5,33.78,33.78,0,0,1,4.39-3.16l.13-3.07a3.14,3.14,0,0,1-.82-1,3.91,3.91,0,0,1,.06-3.4,3.63,3.63,0,0,1,1-1.11l.11-2.64a2.36,2.36,0,0,1-.6-.83,2.63,2.63,0,0,1-.31-1.32,3.08,3.08,0,0,1,.34-1.4,2.72,2.72,0,0,1,.74-.87l.12-2.81L396.82,24a10.86,10.86,0,0,1-8.11-5.94c-3-5.77-1.22-13.13,4-16.46A9.89,9.89,0,0,1,398.72,0,8.58,8.58,0,0,0,395.1,1.4c-4.67,3-6.28,9.62-3.59,14.84s8.66,7,13.33,4a10.42,10.42,0,0,0,2.9-2.83,11.76,11.76,0,0,1-4.28,5.06,10.1,10.1,0,0,1-5.61,1.63l.79,19.46.1,2.81a2.4,2.4,0,0,1,.73.87h0a2.87,2.87,0,0,1,.38,1.4,3,3,0,0,1-.31,1.32h0a2.41,2.41,0,0,1-.62.83Zm183.08,71.93H583v-1.14a.25.25,0,0,0,0-.22c-.08-.09,0-.17,0-.3.2-.53-.39-.66-.71-.92-.19.17-.15.52,0,.92a.27.27,0,0,1,0,.3.26.26,0,0,0,0,.22Zm2,0h2.09v-1.14a.83.83,0,0,0,0-.22.27.27,0,0,1,0-.3c.23-.75-.83-.66-1-1.23h0c-.15.57-1.21.48-1,1.23,0,.13.08.21,0,.3s-.08.22-.08.22Zm3.15,0h.94v-1.14a.47.47,0,0,0-.08-.22c-.08-.09,0-.17,0-.3.12-.4.2-.75,0-.92-.35.26-.94.35-.74.92,0,.13,0,.21,0,.3a.47.47,0,0,0-.08.22Zm-80.1-13.68h.94v-1.14a.45.45,0,0,0-.08-.21c-.08-.09,0-.22,0-.31.2-.57-.39-.7-.74-1-.2.22-.12.57,0,1a.31.31,0,0,1,0,.31.45.45,0,0,0-.08.21Zm2,0h2.09v-1.14a.23.23,0,0,0,0-.21c-.12-.09,0-.22,0-.31.23-.75-.83-.75-.95-1.27h0c-.15.52-1.25.52-1,1.27a.42.42,0,0,1,0,.31c-.12.13-.08.21-.08.21Zm3.19,0h.9v-1.14a.23.23,0,0,0,0-.21c-.12-.09-.07-.22,0-.31.12-.44.2-.75,0-1-.31.27-.94.4-.78,1a.23.23,0,0,1,0,.31.23.23,0,0,0,0,.21Zm-49.78,5.44h2.75v-9.38a.91.91,0,0,0-.2-.62c-.24-.35-.12-.65,0-1,.55-1.71-1.29-2.06-2.32-2.9-.59.66-.39,1.67,0,2.9.12.35.24.65,0,1a.72.72,0,0,0-.19.62Zm6.05,0H475v-9.38a.84.84,0,0,0-.24-.62,1,1,0,0,1,0-1c.71-2.24-2.59-2.11-2.95-3.86h0c-.4,1.75-3.7,1.62-2.95,3.86.08.35.2.65,0,1a.91.91,0,0,0-.2.62Zm9.71,0h2.8v-9.38a1,1,0,0,0-.2-.62c-.28-.35-.16-.65,0-1,.39-1.23.59-2.24,0-2.9-1,.84-2.91,1.19-2.32,2.9a1.11,1.11,0,0,1-.08,1,.81.81,0,0,0-.16.62Zm-122-8.64h-1.44V106a.82.82,0,0,1,.2-.61,1,1,0,0,0,0-1c-.54-1.75,1.33-2.06,2.35-2.94.6.66.39,1.67,0,2.94a1,1,0,0,0,0,1,1,1,0,0,1,.18.35,28.34,28.34,0,0,0-1.34,2.71Zm-4.74,0h-6.38V106a.79.79,0,0,1,.19-.61,1,1,0,0,0,0-1c-.72-2.28,2.57-2.15,2.95-3.86h0c.41,1.71,3.7,1.58,3,3.86a.94.94,0,0,0,0,1,.8.8,0,0,1,.18.61Zm-9.68,0h-2.78V106a.73.73,0,0,1,.2-.61,1,1,0,0,0,0-1c-.4-1.27-.61-2.28,0-2.94,1,.88,2.88,1.19,2.31,2.94a1,1,0,0,0,0,1,.92.92,0,0,1,.21.61Zm18.42-58.08h1.44V48.57a.45.45,0,0,0-.1-.33c-.12-.18-.06-.31,0-.52.27-.88-.68-1.06-1.22-1.49-.3.34-.18.87,0,1.49a.56.56,0,0,1,0,.52.5.5,0,0,0-.11.33Zm3.16,0h3.33V48.57a.44.44,0,0,0-.11-.33c-.13-.18-.07-.31,0-.52.37-1.15-1.35-1.1-1.53-2h0c-.17.88-1.89.83-1.52,2,.06.21.11.34,0,.52a.5.5,0,0,0-.11.33Zm5,0H370V48.57a.5.5,0,0,0-.11-.33.59.59,0,0,1,0-.52c.21-.62.32-1.17,0-1.49-.54.43-1.51.61-1.24,1.49.06.21.12.34,0,.52a.52.52,0,0,0-.1.33ZM208.89,102.47h1.42v-1.84a.45.45,0,0,0-.09-.31c-.12-.18-.06-.31,0-.53.31-.87-.64-1.05-1.19-1.49-.3.36-.18.88,0,1.49,0,.22.09.35,0,.53a.45.45,0,0,0-.09.31Zm3.12,0h3.32v-1.84a.43.43,0,0,0-.1-.31c-.14-.18-.08-.31,0-.53.38-1.13-1.34-1.09-1.53-2h0c-.2.88-1.91.84-1.55,2,.07.22.11.35,0,.53a.44.44,0,0,0-.12.31Zm5,0h1.44v-1.84a.43.43,0,0,0-.1-.31c-.12-.18-.07-.31,0-.53.2-.65.29-1.13,0-1.49-.55.44-1.49.62-1.22,1.49.06.22.11.35,0,.53a.4.4,0,0,0-.09.31ZM550.09,88.71h1.42V86.86a.36.36,0,0,0-.11-.31.51.51,0,0,1,0-.48c.27-.92-.67-1.09-1.18-1.49-.32.31-.24.84,0,1.49a.54.54,0,0,1-.05.48.45.45,0,0,0-.08.31Zm3.11,0h3.31V86.86s.08-.13-.08-.31a.42.42,0,0,1,0-.48c.35-1.18-1.34-1.14-1.54-2h0c-.23.87-1.92.83-1.57,2a.42.42,0,0,1,0,.48.62.62,0,0,0-.12.31Zm5,0h1.45V86.86a.66.66,0,0,0-.11-.31c-.12-.17-.05-.3,0-.48.19-.65.31-1.18,0-1.53-.55.44-1.5.61-1.22,1.53,0,.18.11.31,0,.48s-.12.31-.12.31Zm-25.45-14.6h2.13V71.43a.6.6,0,0,0-.16-.46c-.2-.24-.12-.46,0-.74.43-1.3-.94-1.54-1.73-2.18-.47.49-.27,1.28,0,2.18.08.28.16.5,0,.74a.66.66,0,0,0-.16.46Zm4.61,0h4.79V71.43A.6.6,0,0,0,542,71c-.15-.24-.07-.46,0-.74.52-1.69-2-1.61-2.24-2.87h0c-.31,1.26-2.79,1.18-2.23,2.87.07.28.15.5,0,.74a.6.6,0,0,0-.16.46Zm7.27,0h2.12V71.43a.62.62,0,0,0-.15-.46c-.2-.24-.12-.46,0-.74.31-1,.47-1.69,0-2.22-.79.68-2.17.92-1.73,2.22a.83.83,0,0,1,0,.74.6.6,0,0,0-.16.46ZM437,97.47h1.57v-2a.67.67,0,0,0-.12-.35c-.16-.22-.08-.35,0-.53.32-1-.71-1.18-1.3-1.62-.27.35-.19.92,0,1.62,0,.18.12.31,0,.53a.71.71,0,0,0-.11.35Zm3.42,0H444v-2a.71.71,0,0,0-.11-.35.44.44,0,0,1,0-.53c.39-1.27-1.45-1.23-1.65-2.15h0c-.2.92-2.05.88-1.65,2.15a.67.67,0,0,1,0,.53.48.48,0,0,0-.08.35Zm5.39,0h1.57v-2a.67.67,0,0,0-.12-.35.5.5,0,0,1,0-.53c.24-.7.32-1.27,0-1.66-.59.48-1.61.65-1.34,1.66a.5.5,0,0,1,0,.53.39.39,0,0,0-.11.35Zm-149.14,5H298v-1.84a.36.36,0,0,0-.09-.31c-.13-.18-.07-.31,0-.53.29-.87-.68-1.05-1.2-1.49-.29.36-.21.88,0,1.49.07.22.12.35,0,.53a.33.33,0,0,0-.09.31Zm3.11,0h3.31v-1.84a.44.44,0,0,0-.07-.31c-.15-.18-.08-.31-.06-.53.38-1.13-1.31-1.09-1.51-2h0c-.2.88-1.89.84-1.53,2,.05.22.12.35,0,.53a.37.37,0,0,0-.11.31Zm5,0h1.46v-1.84a.41.41,0,0,0-.11-.31c-.14-.18-.07-.31,0-.53.21-.65.32-1.13,0-1.49-.52.44-1.5.62-1.23,1.49.08.22.13.35,0,.53a.46.46,0,0,0-.11.31Zm-46-28.36h2.09V71.43a.7.7,0,0,0-.14-.46c-.2-.24-.12-.46-.05-.74.43-1.3-1-1.54-1.73-2.18-.44.49-.29,1.28,0,2.18.08.28.15.5,0,.74a.59.59,0,0,0-.17.46Zm4.57,0h4.82V71.43A.75.75,0,0,0,268,71c-.19-.24-.12-.46,0-.74.52-1.69-1.94-1.61-2.24-2.87h0c-.3,1.26-2.76,1.18-2.24,2.87.09.28.17.5,0,.74a.64.64,0,0,0-.14.46Zm7.29,0h2.1V71.43a.57.57,0,0,0-.15-.46c-.17-.24-.1-.46,0-.74.3-1,.44-1.69,0-2.22-.77.68-2.17.92-1.77,2.22a.75.75,0,0,1,0,.74.57.57,0,0,0-.15.46Z"/></g><g class="cls-6"><path class="cls-7" d="M693.64,125.53a1.68,1.68,0,0,1,.52.6,2.06,2.06,0,0,1,0,1.85,1.82,1.82,0,0,1-.44.58l.08,1.67a21.3,21.3,0,0,1,2.39,1.72,7.51,7.51,0,0,1,2.1,2.7h0a6.87,6.87,0,0,1,.42,2.73,8.2,8.2,0,0,1-.3,1.82,66.81,66.81,0,0,1,9.43,7.13,31.87,31.87,0,0,1,6.65,8.12l0-3.75h-.26a.56.56,0,0,1-.51-.6h0a.54.54,0,0,1,.38-.55v-2.74H714a.3.3,0,0,1-.28-.31h0a.3.3,0,0,1,.28-.31h.26a3.51,3.51,0,0,1,.06-2.37,3.25,3.25,0,0,1,.92-1.26,10,10,0,0,1,1.18-.9.72.72,0,0,1,0-.23,1,1,0,0,1,0-.33h0a1.19,1.19,0,0,1,.26-.34c.1-.09.21-.16.3-.24l0-.19s0,0,0-.07a.26.26,0,0,1-.05-.12s0-.07.05-.12,0,0,.06-.07l0-.18s-.06,0-.06-.06,0-.05,0-.09,0-.06,0-.07,0-.08.06-.09v-.2l.07-1.46,0,0a0,0,0,0,1,0,0l.08,1.46v.2a.44.44,0,0,1,0,.09h0s0,0,0,.07,0,.07,0,.09h0a.06.06,0,0,1,0,.06V140l.09.07s0,.08,0,.12,0,.08,0,.12a.22.22,0,0,1-.06.07l0,.19c.08.08.19.15.28.24a.85.85,0,0,1,.27.34h0a.81.81,0,0,1,0,.33.72.72,0,0,1,0,.23,12,12,0,0,1,1.18.9,3.47,3.47,0,0,1,.92,1.26,3.64,3.64,0,0,1,.06,2.37h.3a.3.3,0,0,1,.28.31h0a.3.3,0,0,1-.28.31h-.21v2.74a.56.56,0,0,1,.38.55h0a.54.54,0,0,1-.51.6h-.24l0,9.15H720a.64.64,0,0,1,.6.69h0a.62.62,0,0,1-.6.65h-.2l.05,11.27h.58a.72.72,0,0,1,.68.77h0a.73.73,0,0,1-.68.76h-.56l0,4a6.23,6.23,0,0,1,.26-.86,7.36,7.36,0,0,1,1.88-2.51,19,19,0,0,1,2.38-1.79,1.56,1.56,0,0,1-.06-.46,1.32,1.32,0,0,1,.1-.69h0A1.74,1.74,0,0,1,725,171a6,6,0,0,1,.58-.43l0-.41a.45.45,0,0,1-.13-.17.6.6,0,0,1,0-.21.53.53,0,0,1,.06-.24.2.2,0,0,1,.13-.14l0-.36c0-.05-.08-.07-.08-.12a.39.39,0,0,1,0-.38s.06-.1.11-.12V168l.12-2.92c0-.05,0-.07.07-.07s.06,0,.06.07L726,168l0,.38s.07.09.09.12h0a.35.35,0,0,1,.06.19.65.65,0,0,1,0,.19h0a.31.31,0,0,1-.09.12l0,.36a.3.3,0,0,1,.13.14.44.44,0,0,1,.07.24.3.3,0,0,1-.07.21.4.4,0,0,1-.1.17l0,.41a5,5,0,0,1,.6.43,1.91,1.91,0,0,1,.53.69h0a2,2,0,0,1,.11.69,1.25,1.25,0,0,1-.09.46,5,5,0,0,1,.52.33l0-10.08h-1a1.36,1.36,0,0,1-1.26-1.41h0a1.36,1.36,0,0,1,1.26-1.41H728v-8.1h-.39a.5.5,0,0,1-.47-.52h0a.53.53,0,0,1,.47-.55h.48a6.51,6.51,0,0,1,.08-4.28,6.41,6.41,0,0,1,1.67-2.22A16,16,0,0,1,732,143a1.4,1.4,0,0,1-.05-.4,1.24,1.24,0,0,1,.09-.62h0a1.62,1.62,0,0,1,.47-.61,4.94,4.94,0,0,1,.54-.4l0-.36s-.09-.09-.09-.14a.31.31,0,0,1-.06-.19.36.36,0,0,1,.06-.22c0-.07.07-.09.11-.14v-.32s0-.06-.07-.1a.3.3,0,0,1,0-.15.43.43,0,0,1,0-.17.46.46,0,0,1,.09-.12l0-.35.11-2.6a.06.06,0,0,1,.06-.06s0,0,0,.06l.11,2.6,0,.35c.05,0,.07.07.09.12h0a.43.43,0,0,1,0,.17.3.3,0,0,1,0,.15h0s0,.09-.07.1l0,.32c0,.05.06.07.1.14a.3.3,0,0,1,0,.22.55.55,0,0,1,0,.19l-.13.14,0,.36c.15.1.36.24.56.4a2,2,0,0,1,.47.61h0a1.35,1.35,0,0,1,.08.62,1.79,1.79,0,0,1-.06.4,16.6,16.6,0,0,1,2.12,1.6,6.41,6.41,0,0,1,1.67,2.22,6.52,6.52,0,0,1,.09,4.28H739a.52.52,0,0,1,.47.55h0a.49.49,0,0,1-.47.52h-.4v8.1h1.2a1.35,1.35,0,0,1,1.26,1.41h0a1.34,1.34,0,0,1-1.26,1.41h-1l0,4.25a32.19,32.19,0,0,1,3.45-2.53,3.26,3.26,0,0,1-.13-.81,2.94,2.94,0,0,1,.19-1.24h0a3.77,3.77,0,0,1,1-1.25,11.68,11.68,0,0,1,1.09-.78l0-.77a1.17,1.17,0,0,1-.19-.26,1.3,1.3,0,0,1-.09-.41,1,1,0,0,1,.11-.43.72.72,0,0,1,.26-.26v-.67a.62.62,0,0,1-.15-.21.67.67,0,0,1-.07-.31.73.73,0,0,1,.09-.39.57.57,0,0,1,.19-.19l0-.69.2-5.3c0-.05.08-.12.12-.12a.14.14,0,0,1,.11.12l.22,5.3,0,.69a.86.86,0,0,1,.19.19h0a1.17,1.17,0,0,1,.09.39.85.85,0,0,1-.09.31h0c0,.09-.09.14-.15.21l0,.67a.81.81,0,0,1,.26.26,1,1,0,0,1,.11.43,1.3,1.3,0,0,1-.09.41.8.8,0,0,1-.21.26l0,.77a11.68,11.68,0,0,1,1.09.78,3.53,3.53,0,0,1,1,1.25h0a3.75,3.75,0,0,1,.19,1.24,3.67,3.67,0,0,1-.15.81,35.16,35.16,0,0,1,4.33,3.27c.27.27.57.55.83.84l0-4.78h-.13a.37.37,0,0,1-.35-.38h0a.36.36,0,0,1,.35-.38h.13l0-5.4h-.15a.29.29,0,0,1-.3-.31h0a.38.38,0,0,1,.23-.36v-1.6h-.13a.16.16,0,0,1-.15-.17h0a.16.16,0,0,1,.15-.16h.15a2.27,2.27,0,0,1,0-1.41,2,2,0,0,1,.55-.74,7.61,7.61,0,0,1,.69-.53.58.58,0,0,0,0-.14.81.81,0,0,1,0-.19h0c0-.08.08-.12.15-.2l.17-.14v-.09s0,0,0-.08v-.12s0,0,0,0v-.1s0,0,0-.05,0,0,0,0,0,0,0-.05a.08.08,0,0,1,0,0l0-.12,0-.84s0,0,0,0,0,0,0,0l0,.84v.12a.08.08,0,0,1,0,0h0s0,0,0,.05,0,0,0,0h0s0,0,0,.05v.1l0,0a.12.12,0,0,1,0,.08v0c0,.05,0,.05-.06.08l0,.09.17.14c.07.08.13.12.15.2h0a.3.3,0,0,1,0,.19.25.25,0,0,1,0,.12,4.89,4.89,0,0,1,.69.55,1.87,1.87,0,0,1,.56.74,2.33,2.33,0,0,1,0,1.41h.17a.17.17,0,0,1,.17.16h0a.17.17,0,0,1-.17.17h-.11v1.6a.41.41,0,0,1,.22.36h0a.29.29,0,0,1-.3.31h-.15l0,5.4h.13a.36.36,0,0,1,.34.38h0a.37.37,0,0,1-.34.38h-.11l0,6.62h.34a.42.42,0,0,1,.39.43h0a.44.44,0,0,1-.39.45h-.34l0,3.13a3.55,3.55,0,0,1,.09.5,7.17,7.17,0,0,1,.69-.66,19.94,19.94,0,0,1,2.76-2.11,2,2,0,0,1-.07-.55,2.26,2.26,0,0,1,.11-.78h0a2.36,2.36,0,0,1,.62-.79c.26-.22.52-.39.71-.53l0-.48a.24.24,0,0,1-.13-.16.6.6,0,0,1-.06-.27.4.4,0,0,1,.08-.26.36.36,0,0,1,.15-.17l0-.43a.36.36,0,0,1-.11-.14.36.36,0,0,1,0-.45.57.57,0,0,1,.11-.12l0-.46.13-3.39a.09.09,0,0,1,.08-.09.2.2,0,0,1,.05.09l.15,3.39,0,.46.1.12h0a.47.47,0,0,1,.07.24.31.31,0,0,1-.07.21h0a.23.23,0,0,1-.08.14l0,.43a.42.42,0,0,1,.15.17.55.55,0,0,1,.06.26,1.1,1.1,0,0,1,0,.27c0,.07-.08.14-.13.16l0,.48a5.57,5.57,0,0,1,.69.53,2,2,0,0,1,.62.79h0a1.75,1.75,0,0,1,.13.78,1.66,1.66,0,0,1-.09.55,18.86,18.86,0,0,1,2.77,2.11,10,10,0,0,1,1.2,1.24l0-6.09H766a1,1,0,0,1-.92-1h0a1,1,0,0,1,.92-1.05h.75l.09-15.17h-.28a.85.85,0,0,1-.79-.88h0a.83.83,0,0,1,.79-.88h.28l.08-12.35h-.36a.76.76,0,0,1-.71-.81h0a.78.78,0,0,1,.56-.75v-3.7h-.3a.41.41,0,0,1-.37-.41h0a.4.4,0,0,1,.37-.4h.34a5.08,5.08,0,0,1,.06-3.23,4.85,4.85,0,0,1,1.25-1.66,12.47,12.47,0,0,1,1.6-1.21,1.37,1.37,0,0,1,0-.76h0a1.24,1.24,0,0,1,.36-.47,3.43,3.43,0,0,1,.41-.29l0-.28a.43.43,0,0,1-.09-.1.33.33,0,0,1,0-.15.37.37,0,0,1,0-.15.29.29,0,0,1,.11-.11v-.24a.7.7,0,0,1-.06-.09.16.16,0,0,1,0-.1.33.33,0,0,1,0-.14s0,0,0-.1l0-.24.09-2a0,0,0,0,1,0,0s0,0,0,0l.11,2v.24s0,0,.06.1h0a.22.22,0,0,1,0,.14.12.12,0,0,1,0,.1h0s0,.07-.06.09l0,.24a.2.2,0,0,1,.09.11.37.37,0,0,1,0,.15c0,.06,0,.11,0,.15l-.09.1v.28a3.43,3.43,0,0,1,.41.29,1.38,1.38,0,0,1,.37.47h0a1.17,1.17,0,0,1,.08.44,1.94,1.94,0,0,1-.07.32,11.86,11.86,0,0,1,1.61,1.21,4.69,4.69,0,0,1,1.24,1.66,5,5,0,0,1,.07,3.23h.41a.39.39,0,0,1,.36.4h0a.4.4,0,0,1-.36.41h-.3v1c0,.05,0,.12,0,.19l0,.07v2.46a.76.76,0,0,1,.55.75h0a.75.75,0,0,1-.7.81h-.35l.07,12.35h.28a.84.84,0,0,1,.79.88h0a.85.85,0,0,1-.79.88h-.28l.08,15.17h.78a1,1,0,0,1,.92,1.05h0a1,1,0,0,1-.92,1H774l0,10.63h2l0-13h-.51a.64.64,0,0,1-.62-.69h0a.66.66,0,0,1,.62-.69h.51l.09-10.44h-.21a.61.61,0,0,1-.54-.62h0a.58.58,0,0,1,.54-.6h.21l0-8.5H776a.5.5,0,0,1-.5-.53h0a.51.51,0,0,1,.37-.52v-2.56h-.2a.25.25,0,0,1-.25-.26h0a.27.27,0,0,1,.25-.3h.24a3.4,3.4,0,0,1,0-2.21,3,3,0,0,1,.86-1.13,7.26,7.26,0,0,1,1.12-.84.42.42,0,0,1,0-.22.54.54,0,0,1,0-.32h0a.71.71,0,0,1,.25-.3c.09-.09.19-.15.26-.21l0-.18a.1.1,0,0,1,0-.07.23.23,0,0,1,0-.11.22.22,0,0,1,0-.11s0-.06.06-.07v-.17s0,0,0,0,0-.06,0-.09a.29.29,0,0,1,0-.08s0,0,0,0l0-.19,0-1.35,0,0s0,0,0,0l.06,1.35v.18s0,0,0,.05h0a.41.41,0,0,1,0,.09.18.18,0,0,1,0,.09h0s0,0,0,0v.18a.09.09,0,0,1,.05.07.13.13,0,0,1,0,.11.23.23,0,0,1,0,.11.17.17,0,0,0,0,.07v.18c.06.06.19.12.28.21a1,1,0,0,1,.23.3h0a.85.85,0,0,1,0,.31.65.65,0,0,1,0,.22,9,9,0,0,1,1.1.84,3,3,0,0,1,.87,1.13,3.48,3.48,0,0,1,.05,2.21h.25a.29.29,0,0,1,.28.3h0a.28.28,0,0,1-.28.26h-.19v2.56a.5.5,0,0,1,.36.52h0a.48.48,0,0,1-.47.53H781l.06,8.5h.17a.57.57,0,0,1,.54.6h0a.59.59,0,0,1-.54.62H781l0,10.44h.51a.66.66,0,0,1,.64.69h0a.64.64,0,0,1-.64.69h-.49l0,13h.79v-.53h-.06a.28.28,0,0,1-.26-.29h0a.27.27,0,0,1,.26-.26H782a7,7,0,0,1-.07-4.8,6.84,6.84,0,0,1,1.72-2.25,14.34,14.34,0,0,1,2.16-1.64,2.11,2.11,0,0,1-.06-.43,1.1,1.1,0,0,1,.1-.63h0a1.65,1.65,0,0,1,.47-.62l.56-.38,0-.38a.94.94,0,0,1-.1-.14.26.26,0,0,1,0-.2.3.3,0,0,1,0-.21.52.52,0,0,1,.12-.17l0-.31s-.07-.07-.09-.09a.79.79,0,0,1,0-.17.35.35,0,0,1,0-.17.38.38,0,0,1,.09-.12l0-.36.1-2.65s0,0,.07,0a0,0,0,0,1,0,0l.11,2.65,0,.36s.06.07.09.12h0a.35.35,0,0,1,0,.17.59.59,0,0,1,0,.17h0s0,.07-.09.09v.31a.3.3,0,0,1,.13.17.36.36,0,0,1,0,.21.59.59,0,0,1,0,.2s-.06.09-.11.14v.38c.17.1.37.24.56.38a1.83,1.83,0,0,1,.49.62h0a1.29,1.29,0,0,1,.09.63,1.27,1.27,0,0,1-.06.43,13.86,13.86,0,0,1,2.16,1.64,6.54,6.54,0,0,1,1.71,2.25,6.88,6.88,0,0,1-.06,4.8h.13a.26.26,0,0,1,.26.26h0a.27.27,0,0,1-.26.29h-.11v.53h1.22v-1.27h-.32a.43.43,0,0,1-.41-.45h0a.42.42,0,0,1,.41-.46h.32l0-6.59h-.11a.39.39,0,0,1-.37-.41h0a.37.37,0,0,1,.37-.38h.11l0-5.35h-.13a.35.35,0,0,1-.32-.36h0a.31.31,0,0,1,.23-.33v-1.6h-.13c-.08,0-.15-.1-.15-.2h0a.16.16,0,0,1,.15-.16h.15a2.32,2.32,0,0,1,0-1.41,2.2,2.2,0,0,1,.56-.72,7.52,7.52,0,0,1,.69-.55s0-.07,0-.09a.38.38,0,0,1,0-.22h0c0-.09.09-.14.15-.21l.17-.12v-.12a.12.12,0,0,1,0,0,.08.08,0,0,1,0-.05.31.31,0,0,1,0-.07.08.08,0,0,0,0-.05l0-.12s0,0,0,0l0-.05s0-.05,0-.07a0,0,0,0,1,0,0v-.12l0-.86h0l0,.86v.12a.07.07,0,0,1,0,0h0a.1.1,0,0,1,0,.07.08.08,0,0,1,0,.05h0s0,0,0,0v.12s0,0,0,.05v.12a.12.12,0,0,1,0,0v.12a.77.77,0,0,1,.17.12.43.43,0,0,1,.15.21h0a.48.48,0,0,1,.05.22s0,.07,0,.09c.19.15.44.34.68.55a2.2,2.2,0,0,1,.56.72,2.32,2.32,0,0,1,0,1.41h.17a.16.16,0,0,1,.17.16h0a.18.18,0,0,1-.17.2h-.13v.43a.14.14,0,0,0,0,.07l0,0v1.08a.32.32,0,0,1,.24.33h0a.34.34,0,0,1-.3.36h-.15l0,5.35h.11a.38.38,0,0,1,.36.38h0a.4.4,0,0,1-.36.41h-.11l0,6.59H797a.42.42,0,0,1,.39.46h0a.43.43,0,0,1-.39.45h-.32l0,28.5H590V180.35h.14l0-5.45h-.52a.68.68,0,0,1-.63-.72h0a.68.68,0,0,1,.63-.71h.52l.06-10.42H590a.59.59,0,0,1-.55-.62h0a.57.57,0,0,1,.55-.6h.18l0-8.48H590a.53.53,0,0,1-.49-.55h0a.52.52,0,0,1,.37-.52v-2.56h-.2a.26.26,0,0,1-.26-.26h0a.26.26,0,0,1,.26-.29h.23a3.45,3.45,0,0,1,0-2.22,3.19,3.19,0,0,1,.86-1.14A6.13,6.13,0,0,1,592,145a1.33,1.33,0,0,1,0-.24.67.67,0,0,1,.06-.31h0a.6.6,0,0,1,.24-.28.89.89,0,0,1,.29-.22v-.19a.13.13,0,0,1,0-.09s0,0,0-.1a.38.38,0,0,1,0-.1s0-.07.07-.07v-.16s0,0,0,0a.34.34,0,0,1,0-.1.18.18,0,0,1,0-.09s0,0,0-.05v-.17l0-1.36,0,0a0,0,0,0,1,0,0l.05,1.36v.17s0,0,0,.05h0a.18.18,0,0,1,0,.09v.1h0s0,0,0,0v.16s0,.05.07.07a.36.36,0,0,1,0,.1c0,.05,0,.1,0,.1a.11.11,0,0,1,0,.09v.19a.89.89,0,0,1,.29.22.6.6,0,0,1,.24.28h0a.79.79,0,0,1,.05.31,1.42,1.42,0,0,1,0,.24,6.5,6.5,0,0,1,1.1.82,3.22,3.22,0,0,1,.87,1.14,3.49,3.49,0,0,1,0,2.22h.28c.14,0,.25.1.25.29h0a.26.26,0,0,1-.25.26h-.21v.67a.32.32,0,0,0,0,.14l0,.05v1.7a.52.52,0,0,1,.39.52h0a.53.53,0,0,1-.48.55H595l0,8.48h.21a.56.56,0,0,1,.53.6h0a.59.59,0,0,1-.53.62h-.21l.07,10.42h.51a.68.68,0,0,1,.64.71h0a.68.68,0,0,1-.64.72h-.5l0,5.45h1.32a13.23,13.23,0,0,1,.41-7.82,13,13,0,0,1,3.4-4.49,33.62,33.62,0,0,1,4.31-3.27,3.74,3.74,0,0,1-.14-.81,3.12,3.12,0,0,1,.2-1.24h0a3.22,3.22,0,0,1,1-1.25,11.68,11.68,0,0,1,1.09-.78l0-.77a.57.57,0,0,1-.19-.26.8.8,0,0,1-.09-.41.85.85,0,0,1,.09-.43,1,1,0,0,1,.24-.26l0-.67a.8.8,0,0,1-.15-.21.67.67,0,0,1-.07-.31.73.73,0,0,1,.09-.39.74.74,0,0,1,.16-.19l0-.69.22-5.3c0-.05,0-.12.11-.12a.13.13,0,0,1,.09.12l.22,5.3,0,.69a.41.41,0,0,1,.18.19h0a.73.73,0,0,1,.1.39.68.68,0,0,1-.08.31h0a.8.8,0,0,1-.15.21l0,.67a.75.75,0,0,1,.24.26,1,1,0,0,1,.1.43,1.07,1.07,0,0,1-.08.41.78.78,0,0,1-.2.26l0,.77a10.49,10.49,0,0,1,1.09.78,3.32,3.32,0,0,1,1,1.25h0A2.79,2.79,0,0,1,610,164a2.85,2.85,0,0,1-.13.81,34.37,34.37,0,0,1,4.32,3.27,13.74,13.74,0,0,1,3.21,4.09v-2.41h-.74a1,1,0,0,1-.92-1h0a1,1,0,0,1,.92-1.05h.76l.07-15.17h-.26a.85.85,0,0,1-.8-.88h0a.84.84,0,0,1,.8-.88h.27l.07-12.35h-.34a.76.76,0,0,1-.71-.81h0a.78.78,0,0,1,.53-.75v-3.7h-.28a.39.39,0,0,1-.37-.41h0a.38.38,0,0,1,.37-.4h.35a4.32,4.32,0,0,1,1.31-4.89,11.86,11.86,0,0,1,1.61-1.21.76.76,0,0,1-.06-.32,1.39,1.39,0,0,1,.07-.44h0a1.35,1.35,0,0,1,.36-.47l.4-.29v-.28a.4.4,0,0,1-.09-.25.37.37,0,0,1,0-.15c0-.05,0-.09.1-.11v-.24a.16.16,0,0,1-.05-.09.17.17,0,0,1,0-.1.32.32,0,0,1,0-.14s.05,0,.06-.1l0-.24.07-2a0,0,0,0,1,0,0s0,0,0,0l.08,2,0,.24.07.1h0a.58.58,0,0,1,0,.14.29.29,0,0,1,0,.1h0a.18.18,0,0,1-.06.09l0,.24a.35.35,0,0,1,.08.11s0,.11,0,.15a.34.34,0,0,1,0,.15.25.25,0,0,1-.08.1l0,.28c.11.08.26.18.39.29a1.24,1.24,0,0,1,.36.47h0a1,1,0,0,1,.08.44,2.16,2.16,0,0,1,0,.32,12.47,12.47,0,0,1,1.6,1.21,5.15,5.15,0,0,1,1.26,1.66,5.08,5.08,0,0,1,.06,3.23h.4a.37.37,0,0,1,.36.4h0a.38.38,0,0,1-.36.41H625v1c0,.05,0,.12,0,.19v2.53a.76.76,0,0,1,.55.75h0a.76.76,0,0,1-.71.81h-.33l.07,12.35h.26a.84.84,0,0,1,.8.88h0a.85.85,0,0,1-.8.88h-.25l.06,15.17h.77a1,1,0,0,1,.92,1.05h0a1,1,0,0,1-.92,1h-.75l0,5.37a11,11,0,0,1,2.54-3.23,25.91,25.91,0,0,1,3.4-2.55,3.54,3.54,0,0,1-.1-.67,2.3,2.3,0,0,1,.16-1h0a2.93,2.93,0,0,1,.76-1,6,6,0,0,1,.86-.62l0-.6a.45.45,0,0,1-.17-.21.78.78,0,0,1-.07-.31.67.67,0,0,1,.09-.34,1.06,1.06,0,0,1,.19-.24l0-.5-.13-.16a1.07,1.07,0,0,1-.06-.27.74.74,0,0,1,.08-.28,1,1,0,0,1,.14-.17l0-.55.16-4.18a.11.11,0,0,1,.1-.1.09.09,0,0,1,.09.1l.16,4.18,0,.55a2.09,2.09,0,0,1,.14.17h0a.72.72,0,0,1,.07.28.6.6,0,0,1-.06.27h0a.74.74,0,0,0-.12.16l0,.5a1.06,1.06,0,0,1,.19.24.77.77,0,0,1,.08.34.55.55,0,0,1-.07.31.37.37,0,0,1-.15.21v.6a5.55,5.55,0,0,1,.88.62,3.07,3.07,0,0,1,.76,1v0a2.52,2.52,0,0,1,.15,1,3.54,3.54,0,0,1-.1.67,24.9,24.9,0,0,1,3.18,2.36l0-8.62h-.19a.59.59,0,0,1-.54-.62h0a.57.57,0,0,1,.54-.6H638l0-8.48h-.23a.53.53,0,0,1-.49-.55h0a.53.53,0,0,1,.37-.52v-2.56h-.19a.26.26,0,0,1-.25-.26h0c0-.19.11-.29.25-.29h.24a3.36,3.36,0,0,1,0-2.22,3.25,3.25,0,0,1,.88-1.14,6.13,6.13,0,0,1,1.1-.82.8.8,0,0,1,0-.24.75.75,0,0,1,0-.31h0a.64.64,0,0,1,.26-.28.84.84,0,0,1,.27-.22v-.19a.19.19,0,0,1,0-.09s0,0,0-.1a.19.19,0,0,1,0-.1s0-.07.07-.07v-.16s0,0,0,0a.36.36,0,0,1,0-.1.51.51,0,0,1,0-.09s0,0,.05-.05v-.17l.06-1.36a0,0,0,0,1,0,0s0,0,0,0l.07,1.36v.17s0,0,.05.05h0a.51.51,0,0,1,0,.09.36.36,0,0,1,0,.1h0s0,0-.05,0l0,.16s0,.05.06.07a.36.36,0,0,1,0,.1c0,.05,0,.1,0,.1a.39.39,0,0,1,0,.09v.19a1.13,1.13,0,0,1,.27.22.7.7,0,0,1,.26.28h0a.75.75,0,0,1,0,.31.57.57,0,0,1,0,.24,6.13,6.13,0,0,1,1.1.82,3.22,3.22,0,0,1,.87,1.14,3.37,3.37,0,0,1,0,2.22h.29c.13,0,.24.1.24.29h0a.25.25,0,0,1-.24.26h-.21v2.56a.51.51,0,0,1,.38.52h0a.54.54,0,0,1-.49.55h-.24l0,8.48h.19a.57.57,0,0,1,.55.6h0a.59.59,0,0,1-.55.62h-.18l0,5.83c.26-.29.57-.57.86-.84a33,33,0,0,1,4.32-3.27A3.21,3.21,0,0,1,648,164a2.8,2.8,0,0,1,.2-1.24h0a3.29,3.29,0,0,1,1-1.25,13.17,13.17,0,0,1,1.09-.78l0-.77a.67.67,0,0,1-.2-.26,1.07,1.07,0,0,1-.08-.41.85.85,0,0,1,.1-.43.62.62,0,0,1,.25-.26v-.67a.8.8,0,0,1-.15-.21.81.81,0,0,1,0-.7.49.49,0,0,1,.19-.19l0-.69.21-5.3c0-.05,0-.12.1-.12a.15.15,0,0,1,.11.12l.22,5.3,0,.69a.65.65,0,0,1,.18.19h0a.81.81,0,0,1,0,.7h0a.8.8,0,0,1-.15.21l0,.67a.75.75,0,0,1,.24.26.86.86,0,0,1,.11.43,1.07,1.07,0,0,1-.09.41.78.78,0,0,1-.2.26l0,.77a10.47,10.47,0,0,1,1.08.78,3.25,3.25,0,0,1,1,1.25h0a2.92,2.92,0,0,1,.18,1.24,2.85,2.85,0,0,1-.13.81,33.67,33.67,0,0,1,4.32,3.27,14.93,14.93,0,0,1,2.88,3.44l.07-13.13h-1a1.35,1.35,0,0,1-1.26-1.41h0a1.34,1.34,0,0,1,1.26-1.41h1.17v-4.3h-.38a.52.52,0,0,1-.47-.55h0a.51.51,0,0,1,.47-.53h.47a6.84,6.84,0,0,1,.08-4.3,6.28,6.28,0,0,1,1.68-2.19,14.56,14.56,0,0,1,2.12-1.63,1.71,1.71,0,0,1-.07-.41,1.82,1.82,0,0,1,.1-.62h0a1.64,1.64,0,0,1,.47-.59c.21-.16.39-.29.55-.39v-.38a.26.26,0,0,1-.1-.14.53.53,0,0,1,0-.19.65.65,0,0,1,0-.21.44.44,0,0,1,.12-.15l0-.31a.3.3,0,0,1-.07-.11.28.28,0,0,1,0-.15.39.39,0,0,1,0-.18s0-.09.09-.11l0-.34.1-2.6a.07.07,0,0,1,.06-.06s.05,0,.05.06l.1,2.6,0,.34a.31.31,0,0,1,.08.11h0a.41.41,0,0,1,.05.18.8.8,0,0,1,0,.15h0a.31.31,0,0,1-.08.11V139a.61.61,0,0,1,.12.15.47.47,0,0,1,.06.21.39.39,0,0,1-.06.19.24.24,0,0,1-.09.14l0,.38c.14.1.34.23.53.39a1.67,1.67,0,0,1,.48.59h0a1.53,1.53,0,0,1,.09.61,2.85,2.85,0,0,1,0,.41,15.68,15.68,0,0,1,2.11,1.63,6.13,6.13,0,0,1,1.67,2.19,6.65,6.65,0,0,1,.09,4.3h.53a.51.51,0,0,1,.49.53h0a.51.51,0,0,1-.49.55h-.39v1.29c0,.09,0,.16,0,.26l0,.12v.76a17.93,17.93,0,0,1,1.32-2l0-5h-.52a.68.68,0,0,1-.64-.72h0a.68.68,0,0,1,.64-.7h.54l0-10.5h-.18a.58.58,0,0,1-.55-.63h0a.56.56,0,0,1,.55-.59h.2l0-8.55h-.23a.52.52,0,0,1-.48-.55h0a.54.54,0,0,1,.36-.53v-2.56h-.2a.27.27,0,0,1-.25-.28h0a.27.27,0,0,1,.25-.28h.24a3.47,3.47,0,0,1,0-2.23,3.25,3.25,0,0,1,.86-1.15,8.24,8.24,0,0,1,1.12-.83.79.79,0,0,1,0-.22.74.74,0,0,1,.06-.31h0a.65.65,0,0,1,.24-.32,1.17,1.17,0,0,1,.29-.2v-.2a.18.18,0,0,1,0-.07.16.16,0,0,1,0-.1s0-.08,0-.11a.47.47,0,0,0,.06-.09l0-.15s0,0-.05-.07,0,0,0-.07a.3.3,0,0,1,0-.1l.06,0v-.18l0-1.35s0,0,0,0,0,0,0,0l0,1.35v.18l.06,0h0a.3.3,0,0,1,0,.1.35.35,0,0,1,0,.07h0l0,.07V115a.41.41,0,0,1,.05.09.2.2,0,0,1,0,.11.58.58,0,0,1,0,.1.18.18,0,0,1-.05.07v.2a1.32,1.32,0,0,1,.27.2.61.61,0,0,1,.25.32h0a.74.74,0,0,1,.06.31c0,.07,0,.16,0,.22a8.19,8.19,0,0,1,1.11.83,3.25,3.25,0,0,1,.86,1.15,3.4,3.4,0,0,1,.05,2.23h.28a.26.26,0,0,1,.25.28h0a.26.26,0,0,1-.25.28h-.21V122a.38.38,0,0,0,0,.12v1.77a.55.55,0,0,1,.38.53h0a.53.53,0,0,1-.49.55h-.24l0,8.55h.19a.56.56,0,0,1,.55.59h0a.58.58,0,0,1-.55.63h-.18l.05,10.5h.53a.59.59,0,0,1,.36.13A71.83,71.83,0,0,1,687,139.2a8.89,8.89,0,0,1-.29-1.82,6.39,6.39,0,0,1,.44-2.73h0a7.51,7.51,0,0,1,2.1-2.7,18.91,18.91,0,0,1,2.4-1.72l.07-1.67a1.85,1.85,0,0,1-.45-.58,2.15,2.15,0,0,1-.19-.89,2,2,0,0,1,.23-1,1.81,1.81,0,0,1,.53-.6l.05-1.44a1.68,1.68,0,0,1-.49-1.17,1.59,1.59,0,0,1,.19-.76,1.45,1.45,0,0,1,.4-.48l.07-1.53.41-10.65a6,6,0,0,1-4.42-3.24,7,7,0,0,1,2.16-9,5.42,5.42,0,0,1,3.3-.86,4.63,4.63,0,0,0-2,.75,6.29,6.29,0,0,0-2,8.09,5,5,0,0,0,7.27,2.17,5.62,5.62,0,0,0,1.57-1.54,6.49,6.49,0,0,1-2.32,2.76,5.55,5.55,0,0,1-3.06.88l.42,10.61.06,1.53a1.34,1.34,0,0,1,.4.48h0a1.59,1.59,0,0,1,.2.76,1.73,1.73,0,0,1-.16.72h0a1.37,1.37,0,0,1-.34.45Zm99.76,39.19h.47v-.62a.15.15,0,0,0,0-.12c-.05,0,0-.09,0-.16.1-.29-.22-.36-.39-.51-.11.1-.09.29,0,.51,0,.07,0,.12,0,.16a.15.15,0,0,0,0,.12Zm1.07,0h1.14v-.62a.34.34,0,0,0,0-.12s0-.09,0-.16c.13-.41-.45-.36-.51-.67h0c-.09.31-.67.26-.54.67,0,.07,0,.12,0,.16s0,.12,0,.12Zm1.71,0h.52v-.62a.23.23,0,0,0-.05-.12s0-.09,0-.16c.07-.22.11-.41,0-.51-.19.15-.51.2-.4.51,0,.07,0,.12,0,.16a.23.23,0,0,0-.05.12Zm-43.64-7.45h.51v-.62a.27.27,0,0,0,0-.12c0-.05,0-.12,0-.17.1-.31-.22-.38-.41-.52-.11.12-.06.31,0,.52a.17.17,0,0,1,0,.17.27.27,0,0,0,0,.12Zm1.09,0h1.13v-.62a.11.11,0,0,0,0-.12c-.06-.05,0-.12,0-.17.13-.4-.45-.4-.51-.69h0c-.09.29-.69.29-.54.69a.25.25,0,0,1,0,.17c-.06.07,0,.12,0,.12Zm1.73,0h.5v-.62a.15.15,0,0,0,0-.12.13.13,0,0,1,0-.17c.07-.24.11-.4,0-.52-.17.14-.51.21-.42.52a.14.14,0,0,1,0,.17.13.13,0,0,0,0,.12Zm-27.12,3h1.5v-5.11a.48.48,0,0,0-.11-.33c-.13-.2-.06-.36,0-.55.3-.93-.71-1.13-1.26-1.58-.33.36-.22.91,0,1.58a.59.59,0,0,1,0,.55.38.38,0,0,0-.11.33Zm3.3,0H735v-5.11a.44.44,0,0,0-.13-.33.57.57,0,0,1,0-.55c.39-1.22-1.41-1.15-1.61-2.11h0c-.21,1-2,.89-1.6,2.11a.66.66,0,0,1,0,.55.48.48,0,0,0-.11.33Zm5.29,0h1.52v-5.11a.5.5,0,0,0-.1-.33c-.16-.2-.09-.36,0-.55.22-.67.33-1.22,0-1.58-.55.45-1.58.65-1.26,1.58a.67.67,0,0,1,0,.55.41.41,0,0,0-.09.33Zm-66.46-4.7h-.78v-1.34a.44.44,0,0,1,.1-.33.53.53,0,0,0,0-.53c-.29-1,.73-1.12,1.28-1.6.33.36.21.91,0,1.6a.53.53,0,0,0,0,.53.53.53,0,0,1,.09.19,15.6,15.6,0,0,0-.73,1.48Zm-2.58,0h-3.48v-1.34a.44.44,0,0,1,.1-.33.53.53,0,0,0,0-.53c-.4-1.24,1.4-1.17,1.61-2.1h0c.22.93,2,.86,1.62,2.1a.51.51,0,0,0,0,.53.44.44,0,0,1,.1.33Zm-5.28,0H661v-1.34a.38.38,0,0,1,.11-.33.56.56,0,0,0,0-.53c-.22-.69-.33-1.24,0-1.6.56.48,1.57.64,1.26,1.6a.51.51,0,0,0,0,.53.48.48,0,0,1,.11.33Zm10-31.66h.79v-1a.25.25,0,0,0-.06-.17c-.07-.1,0-.17,0-.29.14-.48-.38-.57-.67-.81-.16.19-.1.47,0,.81a.33.33,0,0,1,0,.29.25.25,0,0,0-.06.17Zm1.72,0h1.82v-1a.23.23,0,0,0-.07-.17c-.06-.1,0-.17,0-.29.2-.62-.73-.6-.83-1.08h0c-.09.48-1,.46-.83,1.08,0,.12.06.19,0,.29a.25.25,0,0,0-.06.17Zm2.75,0h.8v-1a.25.25,0,0,0-.06-.17.33.33,0,0,1,0-.29c.11-.34.17-.63,0-.81-.29.24-.82.33-.67.81,0,.12.06.19,0,.29a.25.25,0,0,0-.06.17Zm-87,28.38h.78v-1a.26.26,0,0,0,0-.17c-.07-.09,0-.16,0-.28.17-.48-.35-.58-.64-.82-.17.2-.1.48,0,.82,0,.12,0,.19,0,.28a.26.26,0,0,0-.05.17Zm1.7,0h1.81v-1a.24.24,0,0,0-.06-.17c-.07-.09,0-.16,0-.28.21-.62-.73-.6-.83-1.08h0c-.11.48-1,.46-.84,1.08,0,.12.06.19,0,.28a.28.28,0,0,0-.07.17Zm2.74,0h.79v-1a.24.24,0,0,0-.06-.17c-.07-.09,0-.16,0-.28.11-.36.16-.62,0-.82-.29.24-.81.34-.66.82,0,.12.06.19,0,.28a.21.21,0,0,0,0,.17ZM776,144.75h.77v-1s0-.07-.07-.17a.3.3,0,0,1,0-.26c.15-.5-.36-.6-.64-.81-.17.16-.13.45,0,.81a.3.3,0,0,1,0,.26.23.23,0,0,0,0,.17Zm1.69,0h1.8v-1s0-.07,0-.17,0-.16,0-.26c.19-.65-.73-.62-.84-1.1h0c-.13.48-1.05.45-.86,1.1,0,.1.07.17,0,.26a.37.37,0,0,0-.06.17Zm2.74,0h.79v-1a.37.37,0,0,0-.06-.17c-.06-.09,0-.16,0-.26.11-.36.17-.65,0-.84-.3.24-.81.34-.66.84,0,.1.06.17,0,.26s-.07.17-.07.17Zm-13.86-7.95h1.16v-1.46a.33.33,0,0,0-.09-.25c-.11-.13-.07-.25,0-.4.23-.71-.52-.84-1-1.19-.25.26-.15.7,0,1.19,0,.15.09.27,0,.4a.35.35,0,0,0-.08.25Zm2.51,0h2.61v-1.46a.33.33,0,0,0-.09-.25.47.47,0,0,1,0-.4c.28-.93-1.07-.88-1.22-1.57h0c-.17.69-1.52.64-1.22,1.57,0,.15.09.27,0,.4a.3.3,0,0,0-.08.25Zm4,0h1.16v-1.46a.33.33,0,0,0-.09-.25c-.11-.13-.06-.25,0-.4.17-.52.26-.93,0-1.21-.43.37-1.18.5-.94,1.21a.43.43,0,0,1,0,.4.35.35,0,0,0-.08.25Zm-58.69,12.73h.86v-1.07a.38.38,0,0,0-.07-.2c-.08-.11,0-.19,0-.28.17-.55-.38-.65-.71-.89a1,1,0,0,0,0,.89c0,.09.06.17,0,.28a.43.43,0,0,0-.06.2Zm1.86,0h2v-1.07a.43.43,0,0,0-.06-.2.24.24,0,0,1,0-.28c.21-.69-.79-.67-.9-1.17h0c-.11.5-1.12.48-.9,1.17a.35.35,0,0,1,0,.28.28.28,0,0,0-.05.2Zm2.94,0H720v-1.07a.38.38,0,0,0-.07-.2.28.28,0,0,1,0-.28c.13-.38.18-.69,0-.91-.32.26-.87.36-.73.91a.24.24,0,0,1,0,.28.26.26,0,0,0-.06.2Zm-81.27,2.72h.77v-1a.21.21,0,0,0-.05-.17c-.07-.09,0-.16,0-.28.16-.48-.37-.58-.66-.82a.87.87,0,0,0,0,.82c0,.12.06.19,0,.28a.21.21,0,0,0,0,.17Zm1.7,0h1.81v-1a.26.26,0,0,0-.05-.17c-.08-.09,0-.16,0-.28.21-.62-.71-.6-.82-1.08h0c-.11.48-1,.46-.84,1.08,0,.12.06.19,0,.28a.19.19,0,0,0-.06.17Zm2.73,0h.8v-1a.24.24,0,0,0-.06-.17c-.08-.09,0-.16,0-.28.11-.36.17-.62,0-.82-.28.24-.82.34-.67.82,0,.12.07.19,0,.28a.24.24,0,0,0-.06.17Zm-25-15.45h1.14v-1.46a.35.35,0,0,0-.08-.25c-.11-.13-.06-.25,0-.4.23-.71-.53-.84-1-1.19-.24.26-.16.7,0,1.19,0,.15.08.27,0,.4a.33.33,0,0,0-.09.25Zm2.49,0h2.63v-1.46a.42.42,0,0,0-.08-.25c-.11-.13-.07-.25,0-.4.29-.93-1-.88-1.22-1.57h0c-.16.69-1.5.64-1.22,1.57.05.15.09.27,0,.4a.35.35,0,0,0-.08.25Zm4,0h1.15v-1.46a.35.35,0,0,0-.08-.25.41.41,0,0,1,0-.4c.16-.52.24-.93,0-1.21-.42.37-1.18.5-1,1.21,0,.15.08.27,0,.4a.33.33,0,0,0-.09.25Z"/></g><g class="cls-8"><path class="cls-7" d="M104.64,125.53a1.68,1.68,0,0,1,.52.6,2.06,2.06,0,0,1,0,1.85,1.82,1.82,0,0,1-.44.58l.08,1.67a21.3,21.3,0,0,1,2.39,1.72,7.51,7.51,0,0,1,2.1,2.7h0a6.87,6.87,0,0,1,.42,2.73,8.2,8.2,0,0,1-.3,1.82,66.81,66.81,0,0,1,9.43,7.13,31.87,31.87,0,0,1,6.65,8.12l0-3.75h-.26a.56.56,0,0,1-.51-.6h0a.54.54,0,0,1,.38-.55v-2.74H125a.3.3,0,0,1-.28-.31h0a.3.3,0,0,1,.28-.31h.26a3.51,3.51,0,0,1,.06-2.37,3.25,3.25,0,0,1,.92-1.26,10,10,0,0,1,1.18-.9.72.72,0,0,1,0-.23,1,1,0,0,1,0-.33h0a1.19,1.19,0,0,1,.26-.34c.1-.09.21-.16.3-.24l0-.19s0,0,0-.07a.26.26,0,0,1,0-.12s0-.07,0-.12,0,0,.06-.07l0-.18s-.06,0-.06-.06,0-.05,0-.09,0-.06,0-.07,0-.08.06-.09v-.2l.07-1.46,0,0a0,0,0,0,1,0,0l.08,1.46v.2a.44.44,0,0,1,.05.09h0s0,0,0,.07,0,.07,0,.09h0a.06.06,0,0,1-.05.06V140l.09.07s0,.08,0,.12,0,.08,0,.12a.22.22,0,0,1-.06.07l0,.19c.08.08.19.15.28.24a.85.85,0,0,1,.27.34h0a.81.81,0,0,1,.05.33.72.72,0,0,1,0,.23,12,12,0,0,1,1.18.9,3.47,3.47,0,0,1,.92,1.26,3.64,3.64,0,0,1,.06,2.37h.3a.3.3,0,0,1,.28.31h0a.3.3,0,0,1-.28.31h-.21v2.74a.56.56,0,0,1,.38.55h0a.54.54,0,0,1-.51.6h-.24l0,9.15H131a.64.64,0,0,1,.6.69h0a.62.62,0,0,1-.6.65h-.2l0,11.27h.58a.72.72,0,0,1,.68.77h0a.73.73,0,0,1-.68.76h-.56l0,4a6.23,6.23,0,0,1,.26-.86,7.36,7.36,0,0,1,1.88-2.51,19,19,0,0,1,2.38-1.79,1.56,1.56,0,0,1-.06-.46,1.32,1.32,0,0,1,.1-.69h0A1.74,1.74,0,0,1,136,171a6,6,0,0,1,.58-.43l0-.41a.45.45,0,0,1-.13-.17.6.6,0,0,1,0-.21.53.53,0,0,1,.06-.24.2.2,0,0,1,.13-.14l0-.36c0-.05-.08-.07-.08-.12a.39.39,0,0,1,0-.38s.06-.1.11-.12V168l.12-2.92c0-.05,0-.07.07-.07s.06,0,.06.07L137,168l0,.38s.07.09.09.12h0a.35.35,0,0,1,.06.19.65.65,0,0,1,0,.19h0a.31.31,0,0,1-.09.12l0,.36a.3.3,0,0,1,.13.14.44.44,0,0,1,.07.24.3.3,0,0,1-.07.21.4.4,0,0,1-.1.17l0,.41a5,5,0,0,1,.6.43,1.91,1.91,0,0,1,.53.69h0a2,2,0,0,1,.11.69,1.25,1.25,0,0,1-.09.46,5,5,0,0,1,.52.33l0-10.08h-1a1.36,1.36,0,0,1-1.26-1.41h0a1.36,1.36,0,0,1,1.26-1.41H139v-8.1h-.39a.5.5,0,0,1-.47-.52h0a.53.53,0,0,1,.47-.55h.48a6.51,6.51,0,0,1,.08-4.28,6.41,6.41,0,0,1,1.67-2.22A16,16,0,0,1,143,143a1.4,1.4,0,0,1,0-.4,1.24,1.24,0,0,1,.09-.62h0a1.62,1.62,0,0,1,.47-.61,4.94,4.94,0,0,1,.54-.4l0-.36c-.05,0-.09-.09-.09-.14a.31.31,0,0,1-.06-.19.36.36,0,0,1,.06-.22c0-.07.07-.09.11-.14v-.32s0-.06-.07-.1a.3.3,0,0,1,0-.15.43.43,0,0,1,0-.17.46.46,0,0,1,.09-.12l0-.35.11-2.6a.06.06,0,0,1,.06-.06s0,0,0,.06l.11,2.6,0,.35c.05,0,.07.07.09.12h0a.43.43,0,0,1,0,.17.3.3,0,0,1,0,.15h0s0,.09-.07.1l0,.32c0,.05.06.07.1.14a.3.3,0,0,1,.05.22.55.55,0,0,1,0,.19l-.13.14,0,.36c.15.1.36.24.56.4a2,2,0,0,1,.47.61h0a1.35,1.35,0,0,1,.08.62,1.79,1.79,0,0,1-.06.4,16.6,16.6,0,0,1,2.12,1.6,6.41,6.41,0,0,1,1.67,2.22,6.52,6.52,0,0,1,.09,4.28H150a.52.52,0,0,1,.47.55h0a.49.49,0,0,1-.47.52h-.4v8.1h1.2a1.35,1.35,0,0,1,1.26,1.41h0a1.34,1.34,0,0,1-1.26,1.41h-1l0,4.25a32.19,32.19,0,0,1,3.45-2.53,3.26,3.26,0,0,1-.13-.81,2.94,2.94,0,0,1,.19-1.24h0a3.77,3.77,0,0,1,1-1.25,11.68,11.68,0,0,1,1.09-.78l0-.77a1.17,1.17,0,0,1-.19-.26,1.3,1.3,0,0,1-.09-.41,1,1,0,0,1,.11-.43.72.72,0,0,1,.26-.26v-.67a.62.62,0,0,1-.15-.21.67.67,0,0,1-.07-.31.73.73,0,0,1,.09-.39.57.57,0,0,1,.19-.19l0-.69.2-5.3c0-.05.08-.12.12-.12a.14.14,0,0,1,.11.12l.22,5.3,0,.69a.86.86,0,0,1,.19.19h0a1.17,1.17,0,0,1,.09.39.85.85,0,0,1-.09.31h0c0,.09-.09.14-.15.21l0,.67a.81.81,0,0,1,.26.26,1,1,0,0,1,.11.43,1.3,1.3,0,0,1-.09.41.8.8,0,0,1-.21.26l0,.77a11.68,11.68,0,0,1,1.09.78,3.53,3.53,0,0,1,1,1.25h0a3.75,3.75,0,0,1,.19,1.24,3.67,3.67,0,0,1-.15.81,35.16,35.16,0,0,1,4.33,3.27c.27.27.57.55.83.84l0-4.78h-.13a.37.37,0,0,1-.35-.38h0a.36.36,0,0,1,.35-.38h.13l0-5.4h-.15a.29.29,0,0,1-.3-.31h0a.38.38,0,0,1,.23-.36v-1.6h-.13a.16.16,0,0,1-.15-.17h0a.16.16,0,0,1,.15-.16h.15a2.27,2.27,0,0,1,0-1.41,2,2,0,0,1,.55-.74,7.61,7.61,0,0,1,.69-.53.58.58,0,0,0,0-.14.81.81,0,0,1,0-.19h0c0-.08.08-.12.15-.2l.17-.14v-.09s0,0,0-.08v-.12s0,0,0,0v-.1s0,0,0-.05,0,0,0,0,0,0,0-.05a.08.08,0,0,1,0,0l0-.12,0-.84s0,0,0,0,0,0,0,0l0,.84v.12a.08.08,0,0,1,0,0h0s0,0,0,.05,0,0,0,0h0s0,0,0,.05v.1l0,0a.12.12,0,0,1,0,.08v0c0,.05,0,.05-.06.08l0,.09.17.14c.07.08.13.12.15.2h0a.3.3,0,0,1,0,.19.25.25,0,0,1,0,.12,4.89,4.89,0,0,1,.69.55,1.87,1.87,0,0,1,.56.74,2.33,2.33,0,0,1,0,1.41h.17a.17.17,0,0,1,.17.16h0a.17.17,0,0,1-.17.17h-.11v1.6a.41.41,0,0,1,.22.36h0a.29.29,0,0,1-.3.31h-.15l0,5.4h.13a.36.36,0,0,1,.34.38h0a.37.37,0,0,1-.34.38h-.11l0,6.62h.34a.42.42,0,0,1,.39.43h0a.44.44,0,0,1-.39.45h-.34l0,3.13a3.55,3.55,0,0,1,.09.5,7.17,7.17,0,0,1,.69-.66,19.94,19.94,0,0,1,2.76-2.11,2,2,0,0,1-.07-.55,2.26,2.26,0,0,1,.11-.78h0a2.36,2.36,0,0,1,.62-.79c.26-.22.52-.39.71-.53l0-.48a.24.24,0,0,1-.13-.16.6.6,0,0,1-.06-.27.4.4,0,0,1,.08-.26.36.36,0,0,1,.15-.17l0-.43a.36.36,0,0,1-.11-.14.36.36,0,0,1,0-.45.57.57,0,0,1,.11-.12l0-.46.13-3.39a.09.09,0,0,1,.08-.09.2.2,0,0,1,.05.09l.15,3.39,0,.46.1.12h0a.47.47,0,0,1,.07.24.31.31,0,0,1-.07.21h0a.23.23,0,0,1-.08.14l0,.43a.42.42,0,0,1,.15.17.55.55,0,0,1,.06.26,1.1,1.1,0,0,1,0,.27c0,.07-.08.14-.13.16l0,.48a5.57,5.57,0,0,1,.69.53,2,2,0,0,1,.62.79h0a1.75,1.75,0,0,1,.13.78,1.66,1.66,0,0,1-.09.55,18.86,18.86,0,0,1,2.77,2.11,10,10,0,0,1,1.2,1.24l0-6.09H177a1,1,0,0,1-.92-1h0a1,1,0,0,1,.92-1.05h.75l.09-15.17h-.28a.85.85,0,0,1-.79-.88h0a.83.83,0,0,1,.79-.88h.28l.08-12.35h-.36a.76.76,0,0,1-.71-.81h0a.78.78,0,0,1,.56-.75v-3.7h-.3a.41.41,0,0,1-.37-.41h0a.4.4,0,0,1,.37-.4h.34a5.08,5.08,0,0,1,.06-3.23,4.85,4.85,0,0,1,1.25-1.66,12.47,12.47,0,0,1,1.6-1.21,1.37,1.37,0,0,1,0-.76h0a1.24,1.24,0,0,1,.36-.47,3.43,3.43,0,0,1,.41-.29l0-.28a.43.43,0,0,1-.09-.1.33.33,0,0,1,0-.15.37.37,0,0,1,0-.15.29.29,0,0,1,.11-.11v-.24l-.06-.09a.16.16,0,0,1,0-.1.33.33,0,0,1,0-.14s0,0,0-.1l0-.24.09-2a0,0,0,0,1,0,0s0,0,0,0l.11,2v.24s0,0,.06.1h0a.22.22,0,0,1,0,.14.12.12,0,0,1,0,.1h0s0,.07-.06.09l0,.24a.2.2,0,0,1,.09.11.37.37,0,0,1,0,.15c0,.06,0,.11,0,.15l-.09.1v.28a3.43,3.43,0,0,1,.41.29,1.38,1.38,0,0,1,.37.47h0a1.17,1.17,0,0,1,.08.44,1.94,1.94,0,0,1-.07.32,11.86,11.86,0,0,1,1.61,1.21,4.69,4.69,0,0,1,1.24,1.66,5,5,0,0,1,.07,3.23h.41a.39.39,0,0,1,.36.4h0a.4.4,0,0,1-.36.41h-.3v1c0,.05,0,.12,0,.19l0,.07v2.46a.76.76,0,0,1,.55.75h0a.75.75,0,0,1-.7.81h-.35l.07,12.35h.28a.84.84,0,0,1,.79.88h0a.85.85,0,0,1-.79.88h-.28l.08,15.17h.78a1,1,0,0,1,.92,1.05h0a1,1,0,0,1-.92,1H185l.05,10.63h2l0-13h-.51a.64.64,0,0,1-.62-.69h0a.66.66,0,0,1,.62-.69h.51l.09-10.44h-.21a.61.61,0,0,1-.54-.62h0a.58.58,0,0,1,.54-.6h.21l0-8.5H187a.5.5,0,0,1-.5-.53h0a.51.51,0,0,1,.37-.52v-2.56h-.2a.25.25,0,0,1-.25-.26h0a.27.27,0,0,1,.25-.3h.24a3.4,3.4,0,0,1,0-2.21,3,3,0,0,1,.86-1.13,7.26,7.26,0,0,1,1.12-.84.42.42,0,0,1,0-.22.54.54,0,0,1,0-.32h0a.71.71,0,0,1,.25-.3c.09-.09.19-.15.26-.21l0-.18a.1.1,0,0,1,0-.07.23.23,0,0,1,0-.11.22.22,0,0,1,0-.11s0-.06.06-.07v-.17s0,0,0,0,0-.06,0-.09a.29.29,0,0,1,0-.08s0,0,0,0l0-.19,0-1.35.05,0s0,0,0,0l.06,1.35v.18s.05,0,.05.05h0a.41.41,0,0,1,0,.09.18.18,0,0,1,0,.09h0s0,0,0,0v.18a.09.09,0,0,1,0,.07.13.13,0,0,1,0,.11.23.23,0,0,1,0,.11.17.17,0,0,0,0,.07v.18c.06.06.19.12.28.21a1,1,0,0,1,.23.3h0a.85.85,0,0,1,0,.31.65.65,0,0,1,0,.22,9,9,0,0,1,1.1.84,3,3,0,0,1,.87,1.13,3.48,3.48,0,0,1,0,2.21h.25a.29.29,0,0,1,.28.3h0a.28.28,0,0,1-.28.26h-.19v2.56a.5.5,0,0,1,.36.52h0a.48.48,0,0,1-.47.53H192l.06,8.5h.17a.57.57,0,0,1,.54.6h0a.59.59,0,0,1-.54.62H192l.05,10.44h.51a.66.66,0,0,1,.64.69h0a.64.64,0,0,1-.64.69h-.49l0,13h.79v-.53h-.06a.28.28,0,0,1-.26-.29h0a.27.27,0,0,1,.26-.26H193a7,7,0,0,1-.07-4.8,6.84,6.84,0,0,1,1.72-2.25,14.34,14.34,0,0,1,2.16-1.64,2.11,2.11,0,0,1-.06-.43,1.1,1.1,0,0,1,.1-.63h0a1.65,1.65,0,0,1,.47-.62l.56-.38,0-.38a.94.94,0,0,1-.1-.14.26.26,0,0,1,0-.2.3.3,0,0,1,0-.21.52.52,0,0,1,.12-.17l0-.31s-.07-.07-.09-.09a.79.79,0,0,1,0-.17.35.35,0,0,1,0-.17.38.38,0,0,1,.09-.12l0-.36.1-2.65s0,0,.07,0a0,0,0,0,1,0,0l.11,2.65,0,.36s.06.07.09.12h0a.35.35,0,0,1,0,.17.59.59,0,0,1,0,.17h0s0,.07-.09.09v.31a.3.3,0,0,1,.13.17.36.36,0,0,1,0,.21.59.59,0,0,1,0,.2s-.06.09-.11.14v.38c.17.1.37.24.56.38a1.83,1.83,0,0,1,.49.62h0a1.29,1.29,0,0,1,.09.63,1.27,1.27,0,0,1-.06.43,13.86,13.86,0,0,1,2.16,1.64,6.54,6.54,0,0,1,1.71,2.25,6.88,6.88,0,0,1-.06,4.8h.13a.26.26,0,0,1,.26.26h0a.27.27,0,0,1-.26.29h-.11v.53h1.22v-1.27h-.32a.43.43,0,0,1-.41-.45h0a.42.42,0,0,1,.41-.46h.32l0-6.59h-.11a.39.39,0,0,1-.37-.41h0a.37.37,0,0,1,.37-.38h.11l0-5.35h-.13a.35.35,0,0,1-.32-.36h0a.31.31,0,0,1,.23-.33v-1.6h-.13c-.08,0-.15-.1-.15-.2h0a.16.16,0,0,1,.15-.16h.15a2.32,2.32,0,0,1,0-1.41,2.2,2.2,0,0,1,.56-.72,7.52,7.52,0,0,1,.69-.55s0-.07,0-.09a.38.38,0,0,1,0-.22h0c0-.09.09-.14.15-.21l.17-.12v-.12a.12.12,0,0,1,0,0,.08.08,0,0,1,0-.05.31.31,0,0,1,0-.07.08.08,0,0,0,0-.05l0-.12s0,0,0,0l0-.05s0-.05,0-.07a0,0,0,0,1,0,0v-.12l0-.86h.05l0,.86v.12a.07.07,0,0,1,0,0h0a.1.1,0,0,1,0,.07.08.08,0,0,1,0,.05h0s0,0,0,0v.12s0,0,0,.05v.12a.12.12,0,0,1,0,0v.12a.77.77,0,0,1,.17.12.43.43,0,0,1,.15.21h0a.48.48,0,0,1,0,.22s0,.07,0,.09c.19.15.44.34.68.55a2.2,2.2,0,0,1,.56.72,2.32,2.32,0,0,1,0,1.41h.17a.16.16,0,0,1,.17.16h0a.18.18,0,0,1-.17.2h-.13v.43a.14.14,0,0,0,0,.07l0,0v1.08a.32.32,0,0,1,.24.33h0a.34.34,0,0,1-.3.36h-.15l0,5.35h.11a.38.38,0,0,1,.36.38h0a.4.4,0,0,1-.36.41h-.11l0,6.59H208a.42.42,0,0,1,.39.46h0a.43.43,0,0,1-.39.45h-.32l0,28.5H1V180.35h.14l0-5.45H.63a.68.68,0,0,1-.63-.72H0a.68.68,0,0,1,.63-.71h.52l.06-10.42H1a.59.59,0,0,1-.55-.62h0a.57.57,0,0,1,.55-.6h.18l.05-8.48H1a.53.53,0,0,1-.49-.55h0a.52.52,0,0,1,.37-.52v-2.56H.71a.26.26,0,0,1-.26-.26h0a.26.26,0,0,1,.26-.29H.94A3.45,3.45,0,0,1,1,147a3.19,3.19,0,0,1,.86-1.14A6.13,6.13,0,0,1,3,145a1.33,1.33,0,0,1,0-.24.67.67,0,0,1,.06-.31H3a.6.6,0,0,1,.24-.28.89.89,0,0,1,.29-.22v-.19a.13.13,0,0,1,0-.09s0,0,0-.1a.38.38,0,0,1,0-.1s0-.07.07-.07v-.16s0,0,0,0a.34.34,0,0,1,0-.1.18.18,0,0,1,0-.09s0,0,0-.05v-.17l0-1.36,0,0a0,0,0,0,1,0,0l.05,1.36v.17s0,0,0,.05h0a.18.18,0,0,1,0,.09v.1h0s0,0,0,0v.16s0,.05.07.07a.36.36,0,0,1,0,.1c0,.05,0,.1,0,.1a.11.11,0,0,1,0,.09v.19a.89.89,0,0,1,.29.22.6.6,0,0,1,.24.28h0a.79.79,0,0,1,.05.31,1.42,1.42,0,0,1,0,.24,6.5,6.5,0,0,1,1.1.82A3.22,3.22,0,0,1,6.26,147a3.49,3.49,0,0,1,0,2.22h.28c.14,0,.25.1.25.29h0a.26.26,0,0,1-.25.26H6.36v.67a.32.32,0,0,0,0,.14l0,.05v1.7a.52.52,0,0,1,.39.52h0a.53.53,0,0,1-.48.55H6l0,8.48h.21a.56.56,0,0,1,.53.6h0a.59.59,0,0,1-.53.62H6.06l.07,10.42h.51a.68.68,0,0,1,.64.71h0a.68.68,0,0,1-.64.72h-.5l0,5.45H7.48a13.23,13.23,0,0,1,.41-7.82,13,13,0,0,1,3.4-4.49,33.62,33.62,0,0,1,4.31-3.27,3.74,3.74,0,0,1-.14-.81,3.12,3.12,0,0,1,.2-1.24h0a3.22,3.22,0,0,1,1-1.25,11.68,11.68,0,0,1,1.09-.78l0-.77a.57.57,0,0,1-.19-.26.8.8,0,0,1-.09-.41.85.85,0,0,1,.09-.43,1,1,0,0,1,.24-.26l0-.67a.8.8,0,0,1-.15-.21.67.67,0,0,1-.07-.31.73.73,0,0,1,.09-.39.74.74,0,0,1,.16-.19l0-.69.22-5.3c0-.05.05-.12.11-.12a.13.13,0,0,1,.09.12l.22,5.3,0,.69a.41.41,0,0,1,.18.19h0a.73.73,0,0,1,.1.39.68.68,0,0,1-.08.31h0a.8.8,0,0,1-.15.21l0,.67a.75.75,0,0,1,.24.26,1,1,0,0,1,.1.43,1.07,1.07,0,0,1-.08.41.78.78,0,0,1-.2.26l0,.77a10.49,10.49,0,0,1,1.09.78,3.32,3.32,0,0,1,1,1.25h0A2.79,2.79,0,0,1,21,164a2.85,2.85,0,0,1-.13.81A34.37,34.37,0,0,1,25.17,168a13.74,13.74,0,0,1,3.21,4.09v-2.41h-.74a1,1,0,0,1-.92-1h0a1,1,0,0,1,.92-1.05h.76l.07-15.17h-.26a.85.85,0,0,1-.8-.88h0a.84.84,0,0,1,.8-.88h.27l.07-12.35h-.34a.76.76,0,0,1-.71-.81h0a.78.78,0,0,1,.53-.75v-3.7h-.28a.39.39,0,0,1-.37-.41h0a.38.38,0,0,1,.37-.4h.35a4.32,4.32,0,0,1,1.31-4.89A11.86,11.86,0,0,1,31,126.21a.76.76,0,0,1-.06-.32,1.39,1.39,0,0,1,.07-.44h0a1.35,1.35,0,0,1,.36-.47l.4-.29v-.28a.4.4,0,0,1-.09-.25.37.37,0,0,1,0-.15c0-.05.05-.09.1-.11v-.24a.16.16,0,0,1-.05-.09.17.17,0,0,1,0-.1.32.32,0,0,1,0-.14s.05,0,.06-.1l0-.24.07-2a0,0,0,0,1,.05,0s0,0,0,0l.08,2,0,.24.07.1h0a.58.58,0,0,1,0,.14.29.29,0,0,1,0,.1h0a.18.18,0,0,1-.06.09l0,.24a.35.35,0,0,1,.08.11s0,.11,0,.15a.34.34,0,0,1,0,.15.25.25,0,0,1-.08.1l0,.28c.11.08.26.18.39.29a1.24,1.24,0,0,1,.36.47h0a1,1,0,0,1,.08.44,2.16,2.16,0,0,1-.05.32,12.47,12.47,0,0,1,1.6,1.21,5.15,5.15,0,0,1,1.26,1.66,5.08,5.08,0,0,1,.06,3.23h.4a.37.37,0,0,1,.36.4h0a.38.38,0,0,1-.36.41H36v1c0,.05,0,.12,0,.19v2.53a.76.76,0,0,1,.55.75h0a.76.76,0,0,1-.71.81H35.5l.07,12.35h.26a.84.84,0,0,1,.8.88h0a.85.85,0,0,1-.8.88h-.25l.06,15.17h.77a1,1,0,0,1,.92,1.05h0a1,1,0,0,1-.92,1h-.75l0,5.37a11,11,0,0,1,2.54-3.23,25.91,25.91,0,0,1,3.4-2.55,3.54,3.54,0,0,1-.1-.67,2.3,2.3,0,0,1,.16-1h0a2.93,2.93,0,0,1,.76-1,6,6,0,0,1,.86-.62l0-.6a.45.45,0,0,1-.17-.21.78.78,0,0,1-.07-.31.67.67,0,0,1,.09-.34,1.06,1.06,0,0,1,.19-.24l0-.5-.13-.16a1.07,1.07,0,0,1-.06-.27.74.74,0,0,1,.08-.28,1,1,0,0,1,.14-.17l0-.55.16-4.18a.11.11,0,0,1,.1-.1.09.09,0,0,1,.09.1l.16,4.18,0,.55a2.09,2.09,0,0,1,.14.17h0a.72.72,0,0,1,.07.28.6.6,0,0,1-.06.27h0a.74.74,0,0,0-.12.16l0,.5a1.06,1.06,0,0,1,.19.24.77.77,0,0,1,.08.34.55.55,0,0,1-.07.31.37.37,0,0,1-.15.21v.6a5.55,5.55,0,0,1,.88.62,3.07,3.07,0,0,1,.76,1v0a2.52,2.52,0,0,1,.15,1,3.54,3.54,0,0,1-.1.67A24.9,24.9,0,0,1,49,171.67l.05-8.62h-.19a.59.59,0,0,1-.54-.62h0a.57.57,0,0,1,.54-.6H49l0-8.48h-.23a.53.53,0,0,1-.49-.55h0a.53.53,0,0,1,.37-.52v-2.56h-.19a.26.26,0,0,1-.25-.26h0c0-.19.11-.29.25-.29h.24a3.36,3.36,0,0,1,0-2.22,3.25,3.25,0,0,1,.88-1.14,6.13,6.13,0,0,1,1.1-.82.8.8,0,0,1,0-.24.75.75,0,0,1,0-.31h0a.64.64,0,0,1,.26-.28.84.84,0,0,1,.27-.22v-.19a.19.19,0,0,1,0-.09s0,0,0-.1a.19.19,0,0,1,0-.1s0-.07.07-.07v-.16s0,0,0,0a.36.36,0,0,1,0-.1.51.51,0,0,1,0-.09s0,0,.05-.05v-.17l.06-1.36a0,0,0,0,1,0,0s0,0,0,0l.07,1.36v.17s0,0,0,.05h0a.51.51,0,0,1,0,.09.36.36,0,0,1,0,.1h0s0,0,0,0l0,.16s0,.05.06.07a.36.36,0,0,1,0,.1c0,.05,0,.1,0,.1a.39.39,0,0,1,0,.09v.19a1.13,1.13,0,0,1,.27.22.7.7,0,0,1,.26.28h0a.75.75,0,0,1,0,.31.57.57,0,0,1,0,.24,6.13,6.13,0,0,1,1.1.82,3.22,3.22,0,0,1,.87,1.14,3.37,3.37,0,0,1,0,2.22h.29c.13,0,.24.1.24.29h0a.25.25,0,0,1-.24.26h-.21v2.56a.51.51,0,0,1,.38.52h0a.54.54,0,0,1-.49.55h-.24l.05,8.48h.19a.57.57,0,0,1,.55.6h0a.59.59,0,0,1-.55.62h-.18l0,5.83c.26-.29.57-.57.86-.84a33,33,0,0,1,4.32-3.27A3.21,3.21,0,0,1,59,164a2.8,2.8,0,0,1,.2-1.24h0a3.29,3.29,0,0,1,1-1.25,13.17,13.17,0,0,1,1.09-.78l0-.77a.67.67,0,0,1-.2-.26,1.07,1.07,0,0,1-.08-.41.85.85,0,0,1,.1-.43.62.62,0,0,1,.25-.26v-.67a.8.8,0,0,1-.15-.21.81.81,0,0,1,0-.7.49.49,0,0,1,.19-.19l0-.69.21-5.3c0-.05.05-.12.1-.12a.15.15,0,0,1,.11.12l.22,5.3,0,.69a.65.65,0,0,1,.18.19h0a.81.81,0,0,1,0,.7h0a.8.8,0,0,1-.15.21l0,.67a.75.75,0,0,1,.24.26.86.86,0,0,1,.11.43,1.07,1.07,0,0,1-.09.41.78.78,0,0,1-.2.26l0,.77a10.47,10.47,0,0,1,1.08.78,3.25,3.25,0,0,1,1,1.25h0a2.92,2.92,0,0,1,.18,1.24,2.85,2.85,0,0,1-.13.81A33.67,33.67,0,0,1,68.66,168a14.93,14.93,0,0,1,2.88,3.44l.07-13.13h-1a1.35,1.35,0,0,1-1.26-1.41h0a1.34,1.34,0,0,1,1.26-1.41h1.17v-4.3h-.38a.52.52,0,0,1-.47-.55h0a.51.51,0,0,1,.47-.53h.47a6.84,6.84,0,0,1,.08-4.3,6.28,6.28,0,0,1,1.68-2.19A14.56,14.56,0,0,1,75.72,142a1.71,1.71,0,0,1-.07-.41,1.82,1.82,0,0,1,.1-.62h0a1.64,1.64,0,0,1,.47-.59c.21-.16.39-.29.55-.39v-.38a.26.26,0,0,1-.1-.14.53.53,0,0,1-.05-.19.65.65,0,0,1,.05-.21.44.44,0,0,1,.12-.15l0-.31a.3.3,0,0,1-.07-.11.28.28,0,0,1,0-.15.39.39,0,0,1,0-.18s0-.09.09-.11l0-.34.1-2.6a.07.07,0,0,1,.06-.06s0,0,0,.06l.1,2.6,0,.34a.31.31,0,0,1,.08.11h0a.41.41,0,0,1,0,.18.8.8,0,0,1,0,.15h0a.31.31,0,0,1-.08.11V139a.61.61,0,0,1,.12.15.47.47,0,0,1,.06.21.39.39,0,0,1-.06.19.24.24,0,0,1-.09.14l0,.38c.14.1.34.23.53.39a1.67,1.67,0,0,1,.48.59h0a1.53,1.53,0,0,1,.09.61,2.85,2.85,0,0,1-.05.41,15.68,15.68,0,0,1,2.11,1.63,6.13,6.13,0,0,1,1.67,2.19,6.65,6.65,0,0,1,.09,4.3h.53a.51.51,0,0,1,.49.53h0a.51.51,0,0,1-.49.55h-.39v1.29c0,.09,0,.16,0,.26l0,.12v.76a17.93,17.93,0,0,1,1.32-2l0-5h-.52a.68.68,0,0,1-.64-.72h0a.68.68,0,0,1,.64-.7h.54l0-10.5h-.18a.58.58,0,0,1-.55-.63h0a.56.56,0,0,1,.55-.59h.2l0-8.55h-.23a.52.52,0,0,1-.48-.55h0a.54.54,0,0,1,.36-.53v-2.56h-.2a.27.27,0,0,1-.25-.28h0a.27.27,0,0,1,.25-.28h.24a3.47,3.47,0,0,1,0-2.23,3.25,3.25,0,0,1,.86-1.15,8.24,8.24,0,0,1,1.12-.83.79.79,0,0,1,0-.22.74.74,0,0,1,.06-.31h0a.65.65,0,0,1,.24-.32,1.17,1.17,0,0,1,.29-.2v-.2a.18.18,0,0,1-.05-.07.16.16,0,0,1,0-.1s0-.08,0-.11a.47.47,0,0,0,.06-.09l0-.15s0,0,0-.07,0,0,0-.07a.3.3,0,0,1,0-.1l.06,0v-.18l0-1.35s0,0,0,0,0,0,0,0l0,1.35v.18l.06,0h0a.3.3,0,0,1,0,.1.35.35,0,0,1,0,.07h0l0,.07V115a.41.41,0,0,1,0,.09.2.2,0,0,1,0,.11.58.58,0,0,1,0,.1.18.18,0,0,1,0,.07v.2a1.32,1.32,0,0,1,.27.2.61.61,0,0,1,.25.32h0a.74.74,0,0,1,.06.31c0,.07,0,.16,0,.22a8.19,8.19,0,0,1,1.11.83,3.25,3.25,0,0,1,.86,1.15,3.4,3.4,0,0,1,0,2.23h.28a.26.26,0,0,1,.25.28h0a.26.26,0,0,1-.25.28h-.21V122a.38.38,0,0,0,0,.12v1.77a.55.55,0,0,1,.38.53h0a.53.53,0,0,1-.49.55h-.24l0,8.55h.19a.56.56,0,0,1,.55.59h0a.58.58,0,0,1-.55.63h-.18l0,10.5h.53a.59.59,0,0,1,.36.13A71.83,71.83,0,0,1,98,139.2a8.89,8.89,0,0,1-.29-1.82,6.39,6.39,0,0,1,.44-2.73h0a7.51,7.51,0,0,1,2.1-2.7,18.91,18.91,0,0,1,2.4-1.72l.07-1.67a1.85,1.85,0,0,1-.45-.58,2.15,2.15,0,0,1-.19-.89,2,2,0,0,1,.23-1,1.81,1.81,0,0,1,.53-.6l0-1.44a1.68,1.68,0,0,1-.49-1.17,1.59,1.59,0,0,1,.19-.76,1.45,1.45,0,0,1,.4-.48l.07-1.53.41-10.65A6,6,0,0,1,99,106.26a7,7,0,0,1,2.16-9,5.42,5.42,0,0,1,3.3-.86,4.63,4.63,0,0,0-2,.75,6.29,6.29,0,0,0-2,8.09,5,5,0,0,0,7.27,2.17,5.62,5.62,0,0,0,1.57-1.54,6.49,6.49,0,0,1-2.32,2.76,5.55,5.55,0,0,1-3.06.88l.42,10.61.06,1.53a1.34,1.34,0,0,1,.4.48h0a1.59,1.59,0,0,1,.2.76,1.73,1.73,0,0,1-.16.72h0a1.37,1.37,0,0,1-.34.45Zm99.76,39.19h.47v-.62a.15.15,0,0,0,0-.12s0-.09,0-.16c.1-.29-.22-.36-.39-.51-.11.1-.09.29,0,.51,0,.07,0,.12,0,.16a.15.15,0,0,0,0,.12Zm1.07,0h1.14v-.62a.34.34,0,0,0,0-.12s0-.09,0-.16c.13-.41-.45-.36-.51-.67h0c-.09.31-.67.26-.54.67,0,.07.05.12,0,.16s0,.12,0,.12Zm1.71,0h.52v-.62a.23.23,0,0,0,0-.12s0-.09,0-.16c.07-.22.11-.41,0-.51-.19.15-.51.2-.4.51,0,.07,0,.12,0,.16a.23.23,0,0,0,0,.12Zm-43.64-7.45h.51v-.62a.27.27,0,0,0,0-.12c0-.05,0-.12,0-.17.1-.31-.22-.38-.41-.52-.11.12-.06.31,0,.52a.17.17,0,0,1,0,.17.27.27,0,0,0,0,.12Zm1.09,0h1.13v-.62a.11.11,0,0,0,0-.12c-.06-.05,0-.12,0-.17.13-.4-.45-.4-.51-.69h0c-.09.29-.69.29-.54.69a.25.25,0,0,1,0,.17c-.06.07,0,.12,0,.12Zm1.73,0h.5v-.62a.15.15,0,0,0,0-.12.13.13,0,0,1,0-.17c.07-.24.11-.4,0-.52-.17.14-.51.21-.42.52a.14.14,0,0,1,0,.17.13.13,0,0,0,0,.12Zm-27.12,3h1.5v-5.11a.48.48,0,0,0-.11-.33c-.13-.2-.06-.36,0-.55.3-.93-.71-1.13-1.26-1.58-.33.36-.22.91,0,1.58a.59.59,0,0,1,0,.55.38.38,0,0,0-.11.33Zm3.3,0H146v-5.11a.44.44,0,0,0-.13-.33.57.57,0,0,1,0-.55c.39-1.22-1.41-1.15-1.61-2.11h0c-.21,1-2,.89-1.6,2.11a.66.66,0,0,1,0,.55.48.48,0,0,0-.11.33Zm5.29,0h1.52v-5.11a.5.5,0,0,0-.1-.33c-.16-.2-.09-.36,0-.55.22-.67.33-1.22,0-1.58-.55.45-1.58.65-1.26,1.58a.67.67,0,0,1,0,.55.41.41,0,0,0-.09.33Zm-66.46-4.7h-.78v-1.34a.44.44,0,0,1,.1-.33.53.53,0,0,0,0-.53c-.29-1,.73-1.12,1.28-1.6.33.36.21.91,0,1.6a.53.53,0,0,0,0,.53.53.53,0,0,1,.09.19,15.6,15.6,0,0,0-.73,1.48Zm-2.58,0H75.31v-1.34a.44.44,0,0,1,.1-.33.53.53,0,0,0,0-.53c-.4-1.24,1.4-1.17,1.61-2.1h0c.22.93,2,.86,1.62,2.1a.51.51,0,0,0,0,.53.44.44,0,0,1,.1.33Zm-5.28,0H72v-1.34a.38.38,0,0,1,.11-.33.56.56,0,0,0,0-.53c-.22-.69-.33-1.24,0-1.6.56.48,1.57.64,1.26,1.6a.51.51,0,0,0,0,.53.48.48,0,0,1,.11.33Zm10-31.66h.79v-1a.25.25,0,0,0-.06-.17c-.07-.1,0-.17,0-.29.14-.48-.38-.57-.67-.81-.16.19-.1.47,0,.81a.33.33,0,0,1,0,.29.25.25,0,0,0-.06.17Zm1.72,0h1.82v-1a.23.23,0,0,0-.07-.17c-.06-.1,0-.17,0-.29.2-.62-.73-.6-.83-1.08h0c-.09.48-1,.46-.83,1.08,0,.12.06.19,0,.29a.25.25,0,0,0-.06.17Zm2.75,0h.8v-1a.25.25,0,0,0-.06-.17.33.33,0,0,1,0-.29c.11-.34.17-.63,0-.81-.29.24-.82.33-.67.81,0,.12.06.19,0,.29a.25.25,0,0,0-.06.17ZM1,152.25h.78v-1a.26.26,0,0,0-.05-.17c-.07-.09,0-.16,0-.28.17-.48-.35-.58-.64-.82-.17.2-.1.48,0,.82,0,.12,0,.19,0,.28a.26.26,0,0,0-.05.17Zm1.7,0H4.54v-1a.24.24,0,0,0-.06-.17c-.07-.09,0-.16,0-.28.21-.62-.73-.6-.83-1.08h0c-.11.48-1,.46-.84,1.08,0,.12.06.19,0,.28a.28.28,0,0,0-.07.17Zm2.74,0h.79v-1a.24.24,0,0,0-.06-.17c-.07-.09,0-.16,0-.28.11-.36.16-.62,0-.82-.29.24-.81.34-.66.82,0,.12.06.19,0,.28a.21.21,0,0,0,0,.17ZM187,144.75h.77v-1s0-.07-.07-.17a.3.3,0,0,1,0-.26c.15-.5-.36-.6-.64-.81-.17.16-.13.45,0,.81a.3.3,0,0,1,0,.26.23.23,0,0,0,0,.17Zm1.69,0h1.8v-1s0-.07,0-.17,0-.16,0-.26c.19-.65-.73-.62-.84-1.1h0c-.13.48-1,.45-.86,1.1,0,.1.07.17,0,.26a.37.37,0,0,0-.06.17Zm2.74,0h.79v-1a.37.37,0,0,0-.06-.17c-.06-.09,0-.16,0-.26.11-.36.17-.65,0-.84-.3.24-.81.34-.66.84,0,.1.06.17,0,.26s-.07.17-.07.17Zm-13.86-7.95h1.16v-1.46a.33.33,0,0,0-.09-.25c-.11-.13-.07-.25,0-.4.23-.71-.52-.84-1-1.19-.25.26-.15.7,0,1.19.05.15.09.27,0,.4a.35.35,0,0,0-.08.25Zm2.51,0h2.61v-1.46a.33.33,0,0,0-.09-.25.47.47,0,0,1,0-.4c.28-.93-1.07-.88-1.22-1.57h0c-.17.69-1.52.64-1.22,1.57,0,.15.09.27,0,.4a.3.3,0,0,0-.08.25Zm4,0h1.16v-1.46a.33.33,0,0,0-.09-.25c-.11-.13-.06-.25,0-.4.17-.52.26-.93,0-1.21-.43.37-1.18.5-.94,1.21a.43.43,0,0,1,0,.4.35.35,0,0,0-.08.25Zm-58.69,12.73h.86v-1.07a.38.38,0,0,0-.07-.2c-.08-.11,0-.19,0-.28.17-.55-.38-.65-.71-.89a1,1,0,0,0,0,.89c0,.09.06.17,0,.28a.43.43,0,0,0-.06.2Zm1.86,0h2v-1.07a.43.43,0,0,0-.06-.2.24.24,0,0,1,0-.28c.21-.69-.79-.67-.9-1.17h0c-.11.5-1.12.48-.9,1.17a.35.35,0,0,1,0,.28.28.28,0,0,0,0,.2Zm2.94,0H131v-1.07a.38.38,0,0,0-.07-.2.28.28,0,0,1,0-.28c.13-.38.18-.69,0-.91-.32.26-.87.36-.73.91a.24.24,0,0,1,0,.28.26.26,0,0,0-.06.2Zm-81.27,2.72h.77v-1a.21.21,0,0,0,0-.17c-.07-.09,0-.16,0-.28.16-.48-.37-.58-.66-.82a.87.87,0,0,0,0,.82c0,.12.06.19,0,.28a.21.21,0,0,0,0,.17Zm1.7,0h1.81v-1a.26.26,0,0,0-.05-.17c-.08-.09,0-.16,0-.28.21-.62-.71-.6-.82-1.08h0c-.11.48-1,.46-.84,1.08,0,.12.06.19,0,.28a.19.19,0,0,0-.06.17Zm2.73,0h.8v-1a.24.24,0,0,0-.06-.17c-.08-.09,0-.16,0-.28.11-.36.17-.62,0-.82-.28.24-.82.34-.67.82,0,.12.07.19,0,.28a.24.24,0,0,0-.06.17ZM28.22,136.8h1.14v-1.46a.35.35,0,0,0-.08-.25c-.11-.13-.06-.25,0-.4.23-.71-.53-.84-1-1.19-.24.26-.16.7,0,1.19,0,.15.08.27,0,.4a.33.33,0,0,0-.09.25Zm2.49,0h2.63v-1.46a.42.42,0,0,0-.08-.25c-.11-.13-.07-.25,0-.4.29-.93-1.05-.88-1.22-1.57h0c-.16.69-1.5.64-1.22,1.57.05.15.09.27,0,.4a.35.35,0,0,0-.08.25Zm4,0h1.15v-1.46a.35.35,0,0,0-.08-.25.41.41,0,0,1,0-.4c.16-.52.24-.93,0-1.21-.42.37-1.18.5-1,1.21,0,.15.08.27,0,.4a.33.33,0,0,0-.09.25Z"/></g></svg>