<svg id="Layer_1" data-name="Layer 1" xmlns="http://www.w3.org/2000/svg" viewBox="0 0 165 165"><defs><style>.cls-1{fill:none;stroke:#e9c596;stroke-miterlimit:10;}</style></defs><path class="cls-1" d="M79.72,79.72S50.5,56.07,58.85,50.5C69.2,43.6,79.72,79.72,79.72,79.72Z"/><path class="cls-1" d="M78.7,81.48S41.57,75.61,46,66.61C51.53,55.46,78.7,81.48,78.7,81.48Z"/><path class="cls-1" d="M78.7,83.52S43.61,97,43,87C42.16,74.57,78.7,83.52,78.7,83.52Z"/><path class="cls-1" d="M79.72,85.28S56.07,114.5,50.5,106.15C43.6,95.8,79.72,85.28,79.72,85.28Z"/><path class="cls-1" d="M81.48,86.3S75.61,123.43,66.61,119C55.46,113.47,81.48,86.3,81.48,86.3Z"/><path class="cls-1" d="M83.52,86.3S97,121.39,87,122C74.57,122.84,83.52,86.3,83.52,86.3Z"/><path class="cls-1" d="M85.28,85.28s29.22,23.65,20.87,29.22C95.8,121.4,85.28,85.28,85.28,85.28Z"/><path class="cls-1" d="M86.3,83.52S123.43,89.39,119,98.39C113.47,109.54,86.3,83.52,86.3,83.52Z"/><path class="cls-1" d="M86.3,81.48S121.39,68,122,78C122.84,90.43,86.3,81.48,86.3,81.48Z"/><path class="cls-1" d="M85.28,79.72S108.93,50.5,114.5,58.85C121.4,69.2,85.28,79.72,85.28,79.72Z"/><path class="cls-1" d="M83.52,78.7S89.39,41.57,98.39,46C109.54,51.53,83.52,78.7,83.52,78.7Z"/><path class="cls-1" d="M81.48,78.7S68,43.61,78,43C90.43,42.16,81.48,78.7,81.48,78.7Z"/><path class="cls-1" d="M81,43.72c-2.59-6.87-7.1-19.8-5.71-23,1.17-2.72,4.45-4.1,6.82-4.76"/><path class="cls-1" d="M94.1,46.85c3.09-5.39,10.64-19.14,9.6-23-.84-3.1-4.16-5.31-6.43-6.49"/><path class="cls-1" d="M97.49,22S88.13,4.75,86.25,3.56s-4.84,16.78-4.84,16.78S95.25,2.17,96.17,5.59,97.49,22,97.49,22Z"/><path class="cls-1" d="M61.79,49.68C56.11,45,45.73,36.08,45.33,32.59c-.35-2.94,1.8-5.77,3.52-7.54"/><path class="cls-1" d="M74.72,45.82c0-6.2-.35-21.89-3.19-24.71-2.27-2.27-6.25-2.52-8.81-2.4"/><path class="cls-1" d="M65.24,22.63s-16.73-10.28-19-10.37,4.2,17,4.2,17,2.9-22.65,5.41-20.15S65.24,22.63,65.24,22.63Z"/><path class="cls-1" d="M48.15,64.43c-7.24-1.19-20.7-3.75-22.8-6.57-1.77-2.37-1.33-5.9-.71-8.29"/><path class="cls-1" d="M57.43,54.62c-3.12-5.36-11.26-18.78-15.13-19.8-3.1-.83-6.67.94-8.83,2.32"/><path class="cls-1" d="M37.62,39.28S18,38.75,16,39.78,28.12,52.36,28.12,52.36,19.31,31.3,22.73,32.2,37.62,39.28,37.62,39.28Z"/><path class="cls-1" d="M43.72,84c-6.87,2.59-19.8,7.1-23,5.71-2.72-1.17-4.1-4.45-4.76-6.82"/><path class="cls-1" d="M46.85,70.9c-5.39-3.09-19.14-10.64-23-9.6-3.1.84-5.31,4.16-6.49,6.43"/><path class="cls-1" d="M22,67.51S4.75,76.87,3.56,78.75s16.78,4.84,16.78,4.84S2.17,69.75,5.59,68.83,22,67.51,22,67.51Z"/><path class="cls-1" d="M49.68,103.21c-4.66,5.68-13.6,16.06-17.09,16.46-2.94.35-5.77-1.8-7.54-3.52"/><path class="cls-1" d="M45.82,90.28c-6.2,0-21.89.35-24.71,3.19-2.27,2.27-2.52,6.25-2.4,8.81"/><path class="cls-1" d="M22.63,99.76s-10.28,16.73-10.37,19,17-4.2,17-4.2-22.65-2.9-20.15-5.41S22.63,99.76,22.63,99.76Z"/><path class="cls-1" d="M64.43,116.85c-1.19,7.24-3.75,20.7-6.57,22.8-2.37,1.77-5.9,1.33-8.29.71"/><path class="cls-1" d="M54.62,107.57c-5.36,3.12-18.78,11.26-19.8,15.13-.83,3.1.94,6.67,2.32,8.83"/><path class="cls-1" d="M39.28,127.38s-.53,19.63.5,21.61,12.58-12.11,12.58-12.11-21.06,8.81-20.16,5.39S39.28,127.38,39.28,127.38Z"/><path class="cls-1" d="M84,121.28c2.59,6.87,7.1,19.8,5.71,23-1.17,2.72-4.45,4.1-6.82,4.76"/><path class="cls-1" d="M70.9,118.15c-3.09,5.39-10.64,19.14-9.6,23,.84,3.1,4.16,5.31,6.43,6.49"/><path class="cls-1" d="M67.51,143s9.36,17.27,11.24,18.46,4.84-16.78,4.84-16.78-13.84,18.17-14.76,14.75S67.51,143,67.51,143Z"/><path class="cls-1" d="M103.21,115.32c5.68,4.66,16.06,13.6,16.46,17.09.35,2.94-1.8,5.77-3.52,7.54"/><path class="cls-1" d="M90.28,119.18c0,6.2.35,21.89,3.19,24.71,2.27,2.27,6.25,2.52,8.81,2.4"/><path class="cls-1" d="M99.76,142.37s16.73,10.28,19,10.37-4.2-17-4.2-17-2.9,22.65-5.41,20.15S99.76,142.37,99.76,142.37Z"/><path class="cls-1" d="M116.85,100.57c7.24,1.19,20.7,3.75,22.8,6.57,1.77,2.37,1.33,5.9.71,8.29"/><path class="cls-1" d="M107.57,110.38c3.12,5.36,11.26,18.78,15.13,19.8,3.1.83,6.67-.94,8.83-2.32"/><path class="cls-1" d="M127.38,125.72s19.63.53,21.61-.5-12.11-12.58-12.11-12.58,8.81,21.06,5.39,20.16S127.38,125.72,127.38,125.72Z"/><path class="cls-1" d="M121.28,81c6.87-2.59,19.8-7.1,23-5.71,2.72,1.17,4.1,4.45,4.76,6.82"/><path class="cls-1" d="M118.15,94.1c5.39,3.09,19.14,10.64,23,9.6,3.1-.84,5.31-4.16,6.49-6.43"/><path class="cls-1" d="M143,97.49s17.27-9.36,18.46-11.24-16.78-4.84-16.78-4.84,18.17,13.84,14.75,14.76S143,97.49,143,97.49Z"/><path class="cls-1" d="M115.32,61.79c4.66-5.68,13.6-16.06,17.09-16.46,2.94-.35,5.77,1.8,7.54,3.52"/><path class="cls-1" d="M119.18,74.72c6.2,0,21.89-.35,24.71-3.19,2.27-2.27,2.52-6.25,2.4-8.81"/><path class="cls-1" d="M142.37,65.24s10.28-16.73,10.37-19-17,4.2-17,4.2,22.65,2.9,20.15,5.41S142.37,65.24,142.37,65.24Z"/><path class="cls-1" d="M100.57,48.15c1.19-7.24,3.75-20.7,6.57-22.8,2.37-1.77,5.9-1.33,8.29-.71"/><path class="cls-1" d="M110.38,57.43c5.36-3.12,18.78-11.26,19.8-15.13.83-3.1-.94-6.67-2.32-8.83"/><path class="cls-1" d="M125.72,37.62s.53-19.63-.5-21.61-12.58,12.11-12.58,12.11,21.06-8.81,20.16-5.39S125.72,37.62,125.72,37.62Z"/></svg>