<svg id="Layer_1" data-name="Layer 1" xmlns="http://www.w3.org/2000/svg" viewBox="0 0 91.62 47.35"><defs><style>.cls-1{fill:#fff;}.cls-2{fill:#ffbf5e;}</style></defs><path class="cls-1" d="M24,31.9l6.3-.7a3.06,3.06,0,0,1-1,1c-1.67,1.2-3.28,2.52-5.05,3.54-2.3,1.32-3.81,3-3.94,5.76a1.59,1.59,0,0,1-.07.2c-.44,1.83-.88,3.67-1.37,5.66.45-.21.7-.31.94-.44,6-3.13,12.06-6.13,17.94-9.45C41,35.64,44.24,34.55,47.91,35a7,7,0,0,1,2.28.58c7.24,3.74,14.47,7.53,21.69,11.3.26.13.54.23,1,.41-.76-3.11-1.46-6-2.23-9a1.94,1.94,0,0,0-.79-.9c-2.46-1.77-4.94-3.51-7.42-5.26-.37-.27-.73-.57-1.33-1l6.65.72-1.6-4.32L91.62,15.15c0-.06,0-.11-.05-.12Q81.79,7.68,72,.35c-.17-.12-.62-.16-.7-.06-.83,1.06-1.78.56-2.75.33a1.86,1.86,0,0,0-1.14.1c-2,.89-3.94,1.93-6,2.73a78,78,0,0,0-15.09,7.36,1.34,1.34,0,0,1-1.16-.1C42.54,9.29,40,7.67,37.3,6.4,33,4.35,28.51,2.51,24.11.59a.77.77,0,0,0-.57-.06c-1.25.65-2.42.86-3.35-.53L0,15.09,25.62,27.58Z"/><path class="cls-2" d="M24,31.9l1.59-4.32L0,15.09,20.19,0c.93,1.39,2.1,1.18,3.35.53a.77.77,0,0,1,.57.06C28.51,2.51,33,4.35,37.3,6.4c2.7,1.27,5.24,2.89,7.87,4.31a1.34,1.34,0,0,0,1.16.1A78,78,0,0,1,61.42,3.45c2-.8,4-1.84,6-2.73a1.86,1.86,0,0,1,1.14-.1c1,.23,1.92.73,2.75-.33.08-.1.53-.06.7.06Q81.8,7.67,91.57,15s0,.06.05.12L66.11,27.57l1.6,4.32-6.65-.72c.6.46,1,.76,1.33,1,2.48,1.75,5,3.49,7.42,5.26a1.94,1.94,0,0,1,.79.9c.77,2.92,1.47,5.85,2.23,9-.41-.18-.69-.28-1-.41-7.22-3.77-14.45-7.56-21.69-11.3A7,7,0,0,0,47.91,35c-3.67-.48-6.89.61-10.1,2.43-5.88,3.32-12,6.32-17.94,9.45-.24.13-.49.23-.94.44.49-2,.93-3.83,1.37-5.66a1.59,1.59,0,0,0,.07-.2c.13-2.72,1.64-4.44,3.94-5.76,1.77-1,3.38-2.34,5.05-3.54a3.06,3.06,0,0,0,1-1ZM3.33,14.82c.4.22.66.38.93.52,11.16,5.48,22.36,10.89,33.47,16.48a15.39,15.39,0,0,0,8.78,2c.82-.09,1.67,0,2.51,0a4.56,4.56,0,0,0,1.59-.37q15.49-7.57,31-15.18l6.83-3.37c-.32-.27-.51-.45-.72-.62L73.29,2.75c-1.71-1.36-1.71-1.35-4.12-1.37L83.46,13.91c-2.52.76-4.86,1.43-7.18,2.17A122.68,122.68,0,0,0,55,24.52c-3.7,2-7.53,3.94-9.19,8.42a9.83,9.83,0,0,0-3.78-5,48,48,0,0,0-4.5-2.85c-7.41-4.12-15.4-6.8-23.44-9.37-1.9-.61-3.82-1.16-5.87-1.78L22.63,1.31c-.83.05-1.48.06-2.13.14a1.8,1.8,0,0,0-.83.35C14.27,6.09,8.87,10.4,3.33,14.82Z"/><path class="cls-1" d="M3.33,14.82c5.54-4.42,10.94-8.73,16.34-13a1.8,1.8,0,0,1,.83-.35c.65-.08,1.3-.09,2.13-.14L8.26,13.91c2.05.62,4,1.17,5.87,1.78,8,2.57,16,5.25,23.44,9.37a48,48,0,0,1,4.5,2.85,9.83,9.83,0,0,1,3.78,5c1.66-4.48,5.49-6.42,9.19-8.42a122.68,122.68,0,0,1,21.24-8.44c2.32-.74,4.66-1.41,7.18-2.17L69.17,1.38c2.41,0,2.41,0,4.12,1.37L87.68,14.23c.21.17.4.35.72.62l-6.83,3.37q-15.48,7.59-31,15.18a4.56,4.56,0,0,1-1.59.37c-.84.06-1.69-.06-2.51,0a15.39,15.39,0,0,1-8.78-2c-11.11-5.59-22.31-11-33.47-16.48C4,15.2,3.73,15,3.33,14.82Z"/></svg>